<svg version="1.1" id="Layer_1" xmlns="http://www.w3.org/2000/svg" xmlns:xlink="http://www.w3.org/1999/xlink" x="0px" y="0px"
	 width="100%" viewBox="0 0 520 520" enable-background="new 0 0 520 520" xml:space="preserve">
<path fill="#FEFFFF" opacity="1.000000" stroke="none" 
	d="
M281.000000,521.000000 
	C187.355728,521.000000 94.211449,521.000000 1.033586,521.000000 
	C1.033586,347.730713 1.033586,174.461426 1.033586,1.096070 
	C174.227570,1.096070 347.455231,1.096070 520.841431,1.096070 
	C520.841431,174.333221 520.841431,347.666595 520.841431,521.000000 
	C441.128143,521.000000 361.314056,521.000000 281.000000,521.000000 
M133.039200,254.272171 
	C132.721848,254.153809 132.404495,254.035446 131.972565,253.414932 
	C131.736694,253.185806 131.500839,252.956665 130.991714,252.120987 
	C129.701096,251.372543 128.410477,250.624100 126.968399,249.386581 
	C126.676514,249.227051 126.384628,249.067505 125.947365,248.284073 
	C125.276978,247.887665 124.606583,247.491272 123.593155,246.941940 
	C123.593155,246.941940 123.218391,246.966690 123.001511,246.382782 
	C122.380981,245.896713 121.760445,245.410645 120.750290,244.358185 
	C94.078972,228.018890 57.388458,233.954453 36.314583,258.213135 
	C21.522486,274.472900 13.056277,293.796478 8.379576,315.806305 
	C7.952905,317.082428 7.526235,318.358551 7.099565,319.634674 
	C7.385015,319.861847 7.670467,320.089020 7.955918,320.316193 
	C10.342307,318.251465 12.728696,316.186768 15.787061,313.950500 
	C19.163626,311.834717 22.412596,309.472809 25.938377,307.644867 
	C43.044353,298.776306 58.654861,300.410736 72.918022,313.295898 
	C79.266426,319.031006 85.051125,325.568329 90.198799,332.413055 
	C98.172760,343.015808 105.381958,354.193756 112.969330,365.043304 
	C112.969330,365.043304 112.874153,365.074799 113.032845,365.747620 
	C114.951035,368.253662 116.869217,370.759705 118.847527,373.144623 
	C118.847527,373.144623 118.725754,373.203369 118.845474,373.672607 
	C118.845474,373.672607 119.226387,373.971710 119.374847,374.495667 
	C119.863571,375.011749 120.352295,375.527832 120.967751,376.602356 
	C121.266273,376.820038 121.564804,377.037720 121.883980,377.103912 
	C121.883980,377.103912 121.733665,377.131805 121.882889,377.687103 
	C122.269997,378.087433 122.657104,378.487762 123.211365,379.458282 
	C124.013657,380.302643 124.815941,381.147003 125.830467,382.543396 
	C126.123825,382.790283 126.417175,383.037170 126.800301,383.158905 
	C126.800301,383.158905 126.657066,383.215546 126.804642,383.747498 
	C127.082878,383.973724 127.361122,384.199921 127.677711,384.267700 
	C127.677711,384.267700 127.539711,384.354492 127.759308,384.885223 
	C128.176575,385.260803 128.593857,385.636383 129.136185,386.491821 
	C129.321274,386.797455 129.591202,386.971466 130.185165,387.641937 
	C132.778290,390.094879 135.371399,392.547852 138.249710,395.604950 
	C140.495743,397.413788 142.741776,399.222626 144.995117,400.994385 
	C144.995117,400.994385 144.964096,401.016296 145.288376,401.549164 
	C146.167374,402.075104 147.046371,402.601044 147.959793,403.031342 
	C147.959793,403.031342 147.874084,403.085938 148.173325,403.660553 
	C149.449738,404.441345 150.726135,405.222168 152.000000,406.000000 
	C152.000000,406.000000 151.995605,405.998352 152.351410,406.569183 
	C166.137283,416.399139 181.713348,421.230408 198.396698,422.592224 
	C221.493820,424.477509 243.027557,419.959137 262.754364,405.919952 
	C273.964264,397.779846 282.994232,387.727966 289.890411,375.065887 
	C290.108398,374.553711 290.326416,374.041565 291.003235,373.027344 
	C292.748077,369.270111 294.536316,365.532318 296.229462,361.751923 
	C301.028717,351.036560 305.789062,340.303711 311.056885,329.137848 
	C314.065643,326.121674 317.074432,323.105499 320.753265,319.886688 
	C328.430511,314.565216 336.868378,311.169312 346.238861,310.852539 
	C357.699188,310.465149 369.191772,310.841522 380.635681,310.233978 
	C386.908966,309.900970 393.110748,308.222046 400.060486,306.920258 
	C406.450195,303.747070 413.314789,301.256714 419.108643,297.226837 
	C426.253510,292.257263 432.069061,285.661896 435.098969,277.137543 
	C435.098969,277.137543 435.131439,277.169586 435.777252,276.884979 
	C436.239502,275.624481 436.701721,274.363983 437.072327,273.045593 
	C437.072327,273.045593 437.105042,273.148895 437.771484,272.931763 
	C438.589325,270.979401 439.407135,269.027008 440.104187,267.067932 
	C440.104187,267.067932 440.135986,267.184662 440.672089,266.654877 
	C441.072205,264.118134 441.472321,261.581421 442.063812,258.635223 
	C442.063812,258.635223 442.074615,258.183350 442.704285,257.915466 
	C443.410004,253.674438 444.115753,249.433411 444.910889,244.655151 
	C442.405365,244.527435 440.629791,244.360535 438.853943,244.357956 
	C415.366425,244.324020 391.872437,244.647690 368.393280,244.194794 
	C348.222504,243.805725 328.607391,245.704163 310.054443,253.446030 
	C310.315948,251.954178 310.577454,250.462341 311.161804,248.268967 
	C314.526428,238.944901 317.891052,229.620834 321.239777,220.266113 
	C321.239777,220.266113 321.248474,220.233856 321.796265,219.924194 
	C322.261719,218.995850 322.727173,218.067520 323.075867,217.024368 
	C323.075867,217.024368 323.150665,217.170029 323.714996,216.859970 
	C324.532684,215.615616 325.350403,214.371262 326.084137,213.075562 
	C326.084137,213.075562 326.092133,213.173660 326.608215,212.991089 
	C326.771301,212.675995 326.934418,212.360901 327.020325,212.020676 
	C327.020325,212.020676 327.050323,212.096115 327.558380,211.940186 
	C327.714539,211.635559 327.870697,211.330948 328.000000,211.000000 
	C328.000000,211.000000 328.030975,211.021774 328.628021,210.728027 
	C332.519348,207.519119 336.410675,204.310196 340.876740,200.781357 
	C342.288910,199.915100 343.701111,199.048843 345.861816,198.184219 
	C347.460236,197.594254 349.058624,197.004272 350.878387,196.510300 
	C350.878387,196.510300 351.093292,196.400726 351.942444,196.345795 
	C359.196686,195.577957 366.441986,194.267563 373.706940,194.147552 
	C392.842804,193.831451 411.987610,194.094986 431.127930,193.976578 
	C435.083405,193.952118 439.034821,193.272949 443.804047,192.981628 
	C467.654541,188.534607 486.317566,176.325180 499.052765,155.567688 
	C507.907867,141.134460 512.491272,125.483719 511.927673,108.359261 
	C510.553833,108.182823 509.907135,108.026680 509.260590,108.027153 
	C458.001312,108.064606 406.738373,107.782372 355.484711,108.344627 
	C337.739471,108.539291 320.657104,113.156982 304.322723,122.199226 
	C298.571655,125.938408 292.515045,129.285522 287.124146,133.486877 
	C267.249268,148.976227 254.083435,169.459457 245.927917,192.914490 
	C237.650726,216.719391 230.684235,240.980026 222.768768,265.627899 
	C219.134079,272.050171 215.499405,278.472473 211.243713,285.145691 
	C200.368393,298.640747 189.503082,301.912018 172.926025,296.126923 
	C172.315948,296.048462 171.705887,295.970001 170.885025,295.291504 
	C170.295975,295.153076 169.706909,295.014679 168.868637,294.271912 
	C167.950546,293.808167 167.032471,293.344391 165.847595,292.244995 
	C164.595657,291.394714 163.343719,290.544434 161.985809,289.200897 
	C161.829071,289.140015 161.672318,289.079102 161.276779,288.445770 
	C155.842041,281.647003 150.407303,274.848236 145.005844,268.008972 
	C145.005844,268.008972 144.955566,268.023438 144.819168,267.437531 
	C144.257126,266.891724 143.695099,266.345917 143.083618,265.909576 
	C143.083618,265.909576 143.202911,265.923706 143.035660,265.372101 
	C142.701096,265.190277 142.366531,265.008453 141.818558,264.197632 
	C139.636276,261.712952 137.454010,259.228302 135.116562,256.262512 
	C134.841614,256.083069 134.566650,255.903610 134.132294,255.238800 
	C133.849365,255.066818 133.566452,254.894836 133.039200,254.272171 
z"/>
<path fill="#143B74" opacity="1.000000" stroke="none" 
	d="
M435.144104,277.162354 
	C432.069061,285.661896 426.253510,292.257263 419.108643,297.226837 
	C413.314789,301.256714 406.450195,303.747070 399.315613,306.989075 
	C398.051147,307.028198 397.531555,306.998535 396.970703,306.616425 
	C396.236877,305.173462 395.777588,303.776794 394.813751,303.042511 
	C388.824921,298.480164 380.484131,296.754303 377.632660,288.358734 
	C377.299530,287.377869 374.824219,287.311127 373.864929,286.316345 
	C372.043945,284.427948 369.886200,282.379028 369.209259,280.013123 
	C368.569763,277.778015 368.396484,276.491394 365.782104,275.597778 
	C360.479919,273.785583 357.713501,268.664001 359.279480,263.193878 
	C360.428558,259.179932 359.626801,256.507172 356.586670,254.032562 
	C355.609009,253.236740 354.914734,252.092804 354.204590,251.244125 
	C355.608978,249.315689 356.809448,247.667236 358.477966,246.012772 
	C367.299042,246.009476 375.652100,246.012177 383.966125,246.367538 
	C383.351685,248.004227 382.776245,249.288254 381.927002,251.183243 
	C383.793976,251.543213 385.372589,251.474442 386.524200,252.142120 
	C389.540894,253.891159 394.782135,253.918640 394.418579,258.683990 
	C394.088562,263.009613 395.243011,265.897308 398.280426,268.677429 
	C401.097870,271.256226 405.039459,273.884735 405.822510,277.133362 
	C407.299866,283.262543 410.967804,285.741882 416.228943,287.652710 
	C424.475677,290.647919 427.451752,288.887512 428.067657,280.123016 
	C428.110565,279.512115 428.459015,278.922668 428.654510,278.354767 
	C430.936523,277.935486 433.040314,277.548920 435.144104,277.162354 
z"/>
<path fill="#163570" opacity="1.000000" stroke="none" 
	d="
M129.945969,387.013916 
	C129.591202,386.971466 129.321274,386.797455 129.035400,385.927002 
	C128.469635,385.026306 128.004669,384.690399 127.539703,384.354492 
	C127.539711,384.354492 127.677711,384.267700 127.661957,384.038727 
	C127.316490,383.611694 126.986778,383.413605 126.657066,383.215546 
	C126.657066,383.215546 126.800301,383.158905 126.857277,382.896881 
	C126.946518,382.410950 126.978775,382.187073 127.042923,381.621460 
	C127.184799,380.335114 127.740852,378.867279 127.338150,378.524017 
	C120.848373,372.991241 124.070679,366.952148 126.118973,360.854279 
	C127.565956,356.546539 128.876480,352.159851 129.744476,347.710205 
	C130.016647,346.315002 129.072754,344.151520 127.962662,343.110382 
	C123.352997,338.787109 123.241302,332.464203 127.329544,327.905121 
	C129.186493,325.834320 129.818329,322.664948 131.443756,319.995056 
	C143.720901,320.966553 153.776016,317.658081 161.498993,308.146240 
	C162.877014,306.449066 165.499512,305.822968 167.198441,304.310364 
	C169.316147,302.424957 171.071976,300.133087 173.290955,298.141296 
	C174.734543,298.842285 175.871246,299.418701 176.967407,300.342468 
	C173.887344,303.381165 170.028915,305.565399 167.981644,308.871246 
	C163.935394,315.404968 158.041916,318.578217 151.185425,320.861053 
	C146.511139,322.417328 146.236404,323.621216 148.664062,328.027283 
	C146.037277,327.848602 143.747147,327.641388 141.457031,327.434204 
	C141.998001,328.848053 142.791779,329.686829 143.727631,329.898956 
	C150.187302,331.363251 152.392380,337.556824 149.190704,343.581665 
	C147.744431,346.303192 146.239838,351.227509 147.561707,352.802734 
	C153.538010,359.924347 149.668625,368.835083 152.833359,376.337128 
	C153.591751,378.134857 152.989120,381.271820 151.815155,382.960510 
	C149.368042,386.480591 149.785522,389.271942 152.132401,392.456848 
	C153.075882,393.737244 153.388596,395.482391 153.585480,397.013184 
	C147.738266,394.283020 142.070709,391.909058 136.948166,388.672516 
	C134.550110,387.157318 132.730545,385.779694 129.945969,387.013916 
z"/>
<path fill="#14417A" opacity="1.000000" stroke="none" 
	d="
M435.121521,277.149963 
	C433.040314,277.548920 430.936523,277.935486 428.654510,278.354767 
	C428.459015,278.922668 428.110565,279.512115 428.067657,280.123016 
	C427.451752,288.887512 424.475677,290.647919 416.228943,287.652710 
	C410.967804,285.741882 407.299866,283.262543 405.822510,277.133362 
	C405.039459,273.884735 401.097870,271.256226 398.280426,268.677429 
	C395.243011,265.897308 394.088562,263.009613 394.418579,258.683990 
	C394.782135,253.918640 389.540894,253.891159 386.524200,252.142120 
	C385.372589,251.474442 383.793976,251.543213 381.927002,251.183243 
	C382.776245,249.288254 383.351685,248.004227 384.434143,246.359650 
	C402.098145,245.995300 419.255096,245.993439 436.412018,245.986771 
	C443.019531,245.984192 442.967621,245.972595 442.112518,252.694687 
	C441.883270,254.496689 442.075745,256.352325 442.074585,258.183350 
	C442.074615,258.183350 442.063812,258.635223 441.693176,259.082245 
	C440.927002,262.081055 440.531494,264.632874 440.135986,267.184662 
	C440.135986,267.184662 440.104187,267.067932 439.847107,267.218018 
	C438.761719,269.295044 437.933380,271.221954 437.105042,273.148895 
	C437.105042,273.148895 437.072327,273.045593 436.736084,273.101562 
	C435.977020,274.494904 435.554230,275.832245 435.131439,277.169586 
	C435.131439,277.169586 435.098969,277.137543 435.121521,277.149963 
z"/>
<path fill="#1D4FAB" opacity="1.000000" stroke="none" 
	d="
M351.093292,196.400726 
	C351.093292,196.400726 350.878387,196.510300 350.343689,196.333237 
	C349.225250,196.099304 348.641510,196.042435 348.038269,195.559692 
	C348.245209,191.692276 348.249176,188.216019 348.778870,184.821823 
	C349.113037,182.680481 350.188141,180.643631 351.016205,178.594360 
	C351.592346,177.168472 352.212402,175.741180 352.995178,174.422760 
	C353.985413,172.754837 355.584015,171.336533 356.169617,169.562759 
	C357.456238,165.665695 358.469177,161.649765 359.221924,157.613022 
	C359.958954,153.660400 361.572174,149.181595 360.430908,145.713638 
	C358.140808,138.754486 357.047363,132.488464 361.778503,126.269920 
	C361.857635,126.165939 361.499329,125.729187 361.008850,124.833878 
	C359.800781,125.487579 358.665833,126.386459 357.384094,126.718391 
	C355.991852,127.078918 354.463104,126.912125 353.149689,126.669952 
	C361.866608,122.918755 370.427734,119.472870 379.048248,116.376007 
	C384.039307,121.602295 383.605621,122.561462 381.117920,129.184570 
	C378.132050,137.134125 376.185272,145.490829 374.098267,153.749481 
	C373.566650,155.853134 374.594696,158.317352 374.231049,160.503616 
	C373.332825,165.903549 372.071167,171.244598 370.879852,176.592438 
	C370.709106,177.358902 370.249054,178.157898 369.700409,178.727600 
	C365.916534,182.656662 366.430023,186.776459 368.726318,191.321747 
	C363.732422,192.081940 358.999176,192.345734 354.362518,193.159637 
	C353.121399,193.377518 352.174988,195.274551 351.093292,196.400726 
z"/>
<path fill="#1A418A" opacity="1.000000" stroke="none" 
	d="
M321.255676,220.296753 
	C317.891052,229.620834 314.526428,238.944901 310.748322,248.344238 
	C310.436005,247.149597 310.787354,245.838669 310.587280,244.618118 
	C310.143219,241.908722 310.060577,237.406876 308.687134,236.930191 
	C305.452789,235.807632 302.175476,237.560638 300.376129,241.162384 
	C297.101440,247.717300 298.414368,252.476883 304.993286,257.245178 
	C304.984131,257.489166 304.971252,257.977356 304.634583,258.017456 
	C303.222626,258.386292 302.147369,258.715027 300.651489,259.028442 
	C297.143982,258.572388 295.505280,259.662964 295.766052,263.021606 
	C295.529541,263.031158 295.056091,263.037537 294.714233,262.885712 
	C290.839691,261.679443 289.756012,259.562256 292.071625,256.510590 
	C293.830017,254.193222 293.692566,252.247009 292.429993,249.699020 
	C288.972107,242.720795 292.339844,234.433838 299.609528,232.139496 
	C301.968384,231.395050 302.336517,230.742355 302.471954,228.172562 
	C302.865845,220.696243 303.769714,213.200500 305.173401,205.845963 
	C305.752747,202.810394 307.456909,199.284088 309.797058,197.427307 
	C315.883240,192.598282 319.401306,183.636246 317.193726,176.138214 
	C316.688904,174.423645 315.616333,171.705643 316.335266,170.992920 
	C320.728027,166.638046 317.726044,158.624252 324.348297,155.384338 
	C325.422363,154.858856 325.514221,152.325745 326.511444,149.393463 
	C324.412567,150.694580 323.462524,151.031982 322.873749,151.691772 
	C320.244263,154.638351 317.927734,157.894989 315.095337,160.621094 
	C312.249939,163.359695 308.927887,165.603012 305.661926,167.895142 
	C305.671143,167.150833 305.833160,166.574722 306.294250,165.832703 
	C314.179260,157.523605 321.730042,149.346954 329.403290,141.286850 
	C330.208374,140.441162 331.736176,140.283478 333.164429,140.114868 
	C334.803650,140.799271 336.207092,141.175415 338.155792,141.697662 
	C337.749390,143.387573 337.772034,145.165573 336.948639,146.360641 
	C334.626099,149.731430 331.511566,152.616089 329.546448,156.157028 
	C327.525970,159.797775 324.600098,164.476089 325.464935,167.823349 
	C326.821106,173.072357 325.114136,177.101303 323.941528,181.596161 
	C323.613708,182.852570 323.084381,184.260681 323.356598,185.434814 
	C324.692719,191.197968 323.032806,195.972961 318.707245,199.731628 
	C314.020569,203.804092 309.591553,207.851624 310.866974,214.938614 
	C311.352875,217.638626 311.790192,220.347366 312.267242,223.155869 
	C315.982239,221.974167 318.618958,221.135452 321.255676,220.296753 
z"/>
<path fill="#1B4592" opacity="1.000000" stroke="none" 
	d="
M321.247742,220.281433 
	C318.618958,221.135452 315.982239,221.974167 312.267242,223.155869 
	C311.790192,220.347366 311.352875,217.638626 310.866974,214.938614 
	C309.591553,207.851624 314.020569,203.804092 318.707245,199.731628 
	C323.032806,195.972961 324.692719,191.197968 323.356598,185.434814 
	C323.084381,184.260681 323.613708,182.852570 323.941528,181.596161 
	C325.114136,177.101303 326.821106,173.072357 325.464935,167.823349 
	C324.600098,164.476089 327.525970,159.797775 329.546448,156.157028 
	C331.511566,152.616089 334.626099,149.731430 336.948639,146.360641 
	C337.772034,145.165573 337.749390,143.387573 338.155792,141.697662 
	C336.207092,141.175415 334.803650,140.799271 333.230164,139.808868 
	C334.407501,137.816940 335.754883,136.439285 337.417145,135.044556 
	C338.152893,135.006866 338.573730,134.986252 339.238586,135.250183 
	C346.394653,136.822983 346.566925,136.837112 346.000458,143.742386 
	C345.648834,148.028763 345.048248,152.366394 343.906799,156.500854 
	C341.763062,164.265762 342.050690,173.027649 334.965912,178.944962 
	C334.087524,179.678604 334.321655,181.989273 334.385803,183.554993 
	C334.516205,186.735764 334.812836,189.915024 335.182281,193.078415 
	C335.362549,194.622314 335.859924,196.129181 336.074371,197.052628 
	C339.546143,197.052628 342.336243,197.052628 345.116669,197.335052 
	C345.109131,197.805832 345.111237,197.994217 345.113312,198.182587 
	C343.701111,199.048843 342.288910,199.915100 340.194122,200.916290 
	C333.951782,202.379410 329.271362,204.720093 328.030975,211.021774 
	C328.030975,211.021774 328.000000,211.000000 327.785706,211.123642 
	C327.397736,211.530228 327.224030,211.813171 327.050323,212.096115 
	C327.050323,212.096115 327.020325,212.020676 326.814697,212.142456 
	C326.436768,212.567383 326.264465,212.870529 326.092163,213.173676 
	C326.092133,213.173660 326.084137,213.075562 325.748962,213.094452 
	C324.659424,214.465561 323.905029,215.817795 323.150665,217.170029 
	C323.150665,217.170029 323.075867,217.024368 322.756653,217.086945 
	C322.041138,218.177643 321.644806,219.205750 321.248474,220.233856 
	C321.248474,220.233856 321.239777,220.266113 321.247742,220.281433 
z"/>
<path fill="#163069" opacity="1.000000" stroke="none" 
	d="
M131.005920,319.993896 
	C129.818329,322.664948 129.186493,325.834320 127.329544,327.905121 
	C123.241302,332.464203 123.352997,338.787109 127.962662,343.110382 
	C129.072754,344.151520 130.016647,346.315002 129.744476,347.710205 
	C128.876480,352.159851 127.565956,356.546539 126.118973,360.854279 
	C124.070679,366.952148 120.848373,372.991241 127.338150,378.524017 
	C127.740852,378.867279 127.184799,380.335114 126.694702,381.631592 
	C126.082466,381.986084 125.850349,381.988739 125.618233,381.991364 
	C124.815941,381.147003 124.013657,380.302643 123.082268,378.872833 
	C122.546669,377.902191 122.140160,377.516998 121.733658,377.131805 
	C121.733665,377.131805 121.883980,377.103912 121.805984,376.903168 
	C121.432335,376.482910 121.136673,376.263397 120.841019,376.043884 
	C120.352295,375.527832 119.863571,375.011749 119.424675,374.093872 
	C119.224922,373.529175 118.975342,373.366272 118.725754,373.203369 
	C118.725754,373.203369 118.847527,373.144623 118.858719,372.832520 
	C116.871323,370.038544 114.872742,367.556671 112.874161,365.074799 
	C112.874153,365.074799 112.969330,365.043304 112.969986,364.691833 
	C112.346725,362.752380 111.932198,361.037170 111.059532,359.600250 
	C108.473312,355.341675 105.706390,351.192841 103.362656,346.936829 
	C105.361496,343.898560 106.768791,340.758728 108.697052,337.980469 
	C115.661179,327.946503 115.703194,327.494537 107.694931,318.187714 
	C105.731476,315.905884 105.988091,308.453491 107.623322,306.625031 
	C109.372002,304.669739 110.568787,302.220856 112.307922,300.135071 
	C115.077026,302.852905 117.544662,305.423096 120.141296,308.301086 
	C121.844582,310.074219 123.418877,311.539551 125.028198,313.347717 
	C127.044121,315.791687 129.025024,317.892792 131.005920,319.993896 
z"/>
<path fill="#416FB6" opacity="1.000000" stroke="none" 
	d="
M305.007751,122.059334 
	C320.657104,113.156982 337.739471,108.539291 355.484711,108.344627 
	C406.738373,107.782372 458.001312,108.064606 509.260590,108.027153 
	C509.907135,108.026680 510.553833,108.182823 511.927673,108.359261 
	C512.491272,125.483719 507.907867,141.134460 499.052765,155.567688 
	C486.317566,176.325180 467.654541,188.534607 443.398560,192.679932 
	C442.991882,192.205795 442.990692,192.033340 443.189270,191.557556 
	C443.776978,190.946426 444.126038,190.445786 444.558472,190.358521 
	C463.902039,186.456924 480.081757,177.302246 492.060242,161.407501 
	C500.651062,150.008041 506.815796,137.511993 508.343811,122.754913 
	C509.082153,120.410553 509.878601,118.329430 509.919678,116.233482 
	C509.966553,113.845482 511.213104,110.527092 506.509003,110.029366 
	C484.037231,110.024773 462.032410,110.033287 439.558350,110.023056 
	C434.073029,110.010460 429.056915,110.016617 423.572266,110.006683 
	C413.741974,110.323975 404.380249,110.657356 394.720428,110.696251 
	C381.542603,110.285271 368.654572,109.854317 355.786774,110.192146 
	C349.834656,110.348404 343.921906,112.004227 337.583191,112.991272 
	C329.451508,115.332336 321.727905,117.662323 313.646973,120.025223 
	C310.537476,121.348671 307.785400,122.639198 305.029327,123.617950 
	C305.019501,122.890564 305.013641,122.474953 305.007751,122.059334 
z"/>
<path fill="#142C63" opacity="1.000000" stroke="none" 
	d="
M177.007935,299.995117 
	C175.871246,299.418701 174.734543,298.842285 173.285522,297.897766 
	C172.973190,297.529663 172.968704,297.042908 173.075592,296.921936 
	C173.182480,296.800964 173.379944,296.545532 173.379944,296.545532 
	C189.503082,301.912018 200.368393,298.640747 211.872009,285.046143 
	C212.712952,284.955475 212.925598,284.964355 213.094833,285.303467 
	C213.023849,286.074921 212.996277,286.516144 212.700668,287.196167 
	C211.749802,289.057587 211.279648,290.815979 210.345932,292.278442 
	C206.969345,297.567200 203.436951,302.756500 199.672394,308.130859 
	C197.921143,309.853058 196.460876,311.427734 194.699280,313.146332 
	C187.929123,317.521759 181.460297,321.753265 174.596283,325.994629 
	C167.260605,328.010742 160.345428,330.286530 152.965744,327.640625 
	C151.412872,323.878143 153.728043,323.499542 156.181641,322.988495 
	C163.120819,321.543091 168.992538,318.598816 173.461075,312.624176 
	C175.193146,310.308289 178.884109,308.400940 181.782516,308.252167 
	C186.586685,308.005585 188.741211,305.512665 191.014099,301.456116 
	C186.018860,300.935059 181.513397,300.465088 177.007935,299.995117 
z"/>
<path fill="#3964A4" opacity="1.000000" stroke="none" 
	d="
M304.665253,122.129280 
	C305.013641,122.474953 305.019501,122.890564 304.713135,123.775330 
	C295.003906,129.636230 285.812347,135.292130 278.694122,144.142883 
	C268.424988,153.476242 260.902130,164.343369 255.676727,177.152924 
	C254.246155,179.537094 253.120468,181.761948 251.674408,184.160187 
	C249.775635,188.216553 248.007675,192.035065 246.660675,195.996719 
	C244.299606,202.940933 242.196640,209.972900 239.713593,217.212845 
	C238.951813,219.632874 238.461990,221.808167 237.691177,224.236237 
	C235.595245,231.654480 233.780304,238.819946 231.706757,246.192612 
	C231.288315,247.255569 231.128479,248.111343 230.693329,249.217361 
	C229.928726,251.963837 229.439438,254.460068 228.680298,257.184814 
	C226.954376,259.951630 225.498306,262.489929 223.817688,265.037476 
	C223.593140,265.046722 223.143707,265.041077 223.143707,265.041077 
	C230.684235,240.980026 237.650726,216.719391 245.927917,192.914490 
	C254.083435,169.459457 267.249268,148.976227 287.124146,133.486877 
	C292.515045,129.285522 298.571655,125.938408 304.665253,122.129280 
z"/>
<path fill="#1A3F85" opacity="1.000000" stroke="none" 
	d="
M124.993179,313.004883 
	C123.418877,311.539551 121.844582,310.074219 120.529037,308.295654 
	C126.867302,305.646454 133.027954,303.498108 139.001099,300.916016 
	C143.926208,298.787018 148.769989,296.379517 153.369690,293.627289 
	C155.578140,292.305878 157.139313,289.902710 159.248764,288.093933 
	C160.174469,288.471710 160.845001,288.744934 161.515549,289.018188 
	C161.672318,289.079102 161.829071,289.140015 162.104218,289.750916 
	C162.485458,290.864136 162.748291,291.427277 163.006653,292.399658 
	C163.245224,295.515991 162.537140,297.155426 159.614227,298.450165 
	C153.070450,301.348816 146.593124,304.570526 140.567612,308.411804 
	C135.671249,311.533264 130.770889,313.444885 124.993179,313.004883 
z"/>
<path fill="#1D4FAB" opacity="1.000000" stroke="none" 
	d="
M135.271729,256.743622 
	C137.454010,259.228302 139.636276,261.712952 142.036407,264.773376 
	C142.570465,265.540680 142.886688,265.732178 143.202911,265.923706 
	C143.202911,265.923706 143.083618,265.909576 143.094635,266.195068 
	C143.722290,266.994843 144.338928,267.509155 144.955566,268.023438 
	C144.955566,268.023438 145.005844,268.008972 144.995163,268.397217 
	C144.979065,269.521240 144.973648,270.257019 144.623474,271.030823 
	C139.499924,274.234222 134.728455,277.410828 129.940598,280.562531 
	C122.747826,285.297333 115.699409,290.404236 106.333138,289.447144 
	C105.942551,289.407227 105.436058,290.501556 104.656860,290.999695 
	C102.494690,289.326447 100.659225,287.720917 99.220535,286.080505 
	C104.171768,287.364197 107.856842,285.631470 111.514221,283.046936 
	C114.695175,280.799103 118.101952,278.793365 121.614914,277.110657 
	C127.147186,274.460724 132.863632,272.197205 138.473984,269.706696 
	C139.512817,269.245514 140.418625,268.484650 142.055939,267.430817 
	C139.809891,265.447906 138.418350,264.219391 137.014236,262.622681 
	C136.311981,260.518921 135.622314,258.783295 135.018143,256.972504 
	C135.103653,256.897308 135.271729,256.743622 135.271729,256.743622 
z"/>
<path fill="#203152" opacity="1.000000" stroke="none" 
	d="
M103.010132,347.001099 
	C105.706390,351.192841 108.473312,355.341675 111.059532,359.600250 
	C111.932198,361.037170 112.346725,362.752380 112.943024,364.734100 
	C105.381958,354.193756 98.172760,343.015808 90.198799,332.413055 
	C85.051125,325.568329 79.266426,319.031006 72.918022,313.295898 
	C58.654861,300.410736 43.044353,298.776306 25.938377,307.644867 
	C22.412596,309.472809 19.163626,311.834717 15.384512,313.965637 
	C14.981962,313.980743 14.848665,313.839600 14.945315,313.511353 
	C15.269603,312.745361 15.383995,312.151062 15.741319,311.892548 
	C26.907045,303.814850 39.152748,299.278107 53.141411,300.931519 
	C56.861626,301.371246 60.524422,302.317566 64.199402,303.098053 
	C64.791489,303.223785 65.392853,303.609558 65.848221,304.029022 
	C71.249596,309.004120 76.624039,314.008514 82.147591,319.301514 
	C83.524750,320.399353 84.759865,321.200867 86.030617,322.355896 
	C91.714211,330.806671 97.362167,338.903900 103.010132,347.001099 
z"/>
<path fill="#203152" opacity="1.000000" stroke="none" 
	d="
M442.389435,258.049408 
	C442.075745,256.352325 441.883270,254.496689 442.112518,252.694687 
	C442.967621,245.972595 443.019531,245.984192 436.412018,245.986771 
	C419.255096,245.993439 402.098145,245.995300 384.473206,246.006989 
	C375.652100,246.012177 367.299042,246.009476 358.014496,246.003967 
	C349.079132,246.937469 340.976166,247.380905 333.102112,248.963287 
	C326.591583,250.271652 320.351410,252.925415 313.614441,254.986267 
	C312.247559,254.978302 311.257751,254.967117 310.242157,254.762329 
	C310.216400,254.568741 310.043579,254.218445 310.043579,254.218445 
	C328.607391,245.704163 348.222504,243.805725 368.393280,244.194794 
	C391.872437,244.647690 415.366425,244.324020 438.853943,244.357956 
	C440.629791,244.360535 442.405365,244.527435 444.910889,244.655151 
	C444.115753,249.433411 443.410004,253.674438 442.389435,258.049408 
z"/>
<path fill="#2260D2" opacity="1.000000" stroke="none" 
	d="
M123.218391,246.966690 
	C123.218391,246.966690 123.593155,246.941940 123.773254,247.336807 
	C123.959740,248.156342 123.966118,248.581009 123.698792,249.262543 
	C123.550407,253.999664 121.216644,256.771210 117.413506,258.830109 
	C108.775215,263.506622 100.231384,268.357910 91.662018,273.161072 
	C90.075684,274.050232 88.549698,275.047058 86.656654,275.847198 
	C84.541435,275.828430 82.765396,275.956604 80.663666,276.060791 
	C79.912865,275.945679 79.487747,275.854492 79.049225,275.469635 
	C79.024277,274.780304 79.012749,274.384644 79.230797,273.720551 
	C80.560875,273.141541 81.777687,273.035492 82.742653,272.486664 
	C88.281715,269.336182 93.823677,266.180176 99.213364,262.785797 
	C100.447464,262.008545 101.087280,260.287750 102.407486,259.000549 
	C107.733971,256.957825 112.826538,255.226730 117.451195,252.654404 
	C118.603233,252.013611 118.202652,248.648132 118.633430,246.559280 
	C118.687157,246.298798 119.466331,246.187943 120.156143,246.269974 
	C121.341415,246.677017 122.279900,246.821854 123.218391,246.966690 
z"/>
<path fill="#203152" opacity="1.000000" stroke="none" 
	d="
M262.092712,406.096008 
	C243.027557,419.959137 221.493820,424.477509 198.396698,422.592224 
	C181.713348,421.230408 166.137283,416.399139 152.547241,406.278809 
	C153.490433,405.993073 154.237762,405.997772 155.186768,406.277344 
	C165.615753,412.839691 176.332886,417.887573 188.362961,419.638000 
	C206.818268,422.323303 225.022476,421.955780 242.538757,414.705261 
	C249.075928,411.999329 255.408859,408.799927 261.899231,405.893250 
	C261.963593,405.960968 262.092712,406.096008 262.092712,406.096008 
z"/>
<path fill="#416FB6" opacity="1.000000" stroke="none" 
	d="
M36.914139,257.920685 
	C57.388458,233.954453 94.078972,228.018890 120.650024,244.710266 
	C120.348877,245.083237 120.147995,245.104141 119.541656,245.085510 
	C117.772575,245.017334 116.408943,244.988708 115.035812,244.968582 
	C115.026329,244.977097 115.033783,244.962036 114.973083,244.618393 
	C112.268799,242.865799 109.625221,241.456848 106.568314,240.035736 
	C104.776787,240.002869 103.398590,239.982147 101.809738,239.699844 
	C100.727066,239.300537 99.855064,239.162827 98.657570,239.008972 
	C97.897896,238.975952 97.463715,238.959122 96.852432,238.701691 
	C96.108078,238.330017 95.540802,238.198944 94.517776,238.048859 
	C90.712273,238.019714 87.362534,238.009583 83.781975,237.729675 
	C82.030479,237.637039 80.509789,237.814178 78.598557,237.991119 
	C76.471817,238.326523 74.735634,238.662094 72.661484,238.997360 
	C71.550087,239.332230 70.776665,239.667374 69.672867,240.005402 
	C68.902534,240.029327 68.462563,240.050369 67.650696,240.087952 
	C62.183823,242.733246 57.088856,245.362000 51.996788,247.995377 
	C51.999695,248.000000 51.990528,247.991196 51.646492,248.024231 
	C49.201477,249.705292 47.100502,251.353333 44.704437,253.141922 
	C42.611809,254.871979 40.814266,256.461487 38.712139,258.047424 
	C38.007557,258.098206 37.607563,258.152557 37.134396,258.135193 
	C37.061222,258.063446 36.914139,257.920685 36.914139,257.920685 
z"/>
<path fill="#1B4592" opacity="1.000000" stroke="none" 
	d="
M310.049011,253.832245 
	C310.043579,254.218445 310.216400,254.568741 309.872620,254.804504 
	C308.020020,255.693939 306.511230,256.347595 305.002441,257.001221 
	C298.414368,252.476883 297.101440,247.717300 300.376129,241.162384 
	C302.175476,237.560638 305.452789,235.807632 308.687134,236.930191 
	C310.060577,237.406876 310.143219,241.908722 310.587280,244.618118 
	C310.787354,245.838669 310.436005,247.149597 310.586914,248.695007 
	C310.577454,250.462341 310.315948,251.954178 310.049011,253.832245 
z"/>
<path fill="#3964A4" opacity="1.000000" stroke="none" 
	d="
M442.989471,191.860901 
	C442.990692,192.033340 442.991882,192.205795 442.990601,192.636887 
	C439.034821,193.272949 435.083405,193.952118 431.127930,193.976578 
	C411.987610,194.094986 392.842804,193.831451 373.706940,194.147552 
	C366.441986,194.267563 359.196686,195.577957 351.517883,196.373260 
	C352.174988,195.274551 353.121399,193.377518 354.362518,193.159637 
	C358.999176,192.345734 363.732422,192.081940 369.146301,191.327728 
	C377.581573,191.355545 385.299988,191.667419 393.483124,191.987457 
	C398.971344,191.990112 403.994873,191.984634 409.484039,191.986664 
	C414.969604,191.990005 419.989532,191.985840 425.476624,191.992950 
	C431.625732,191.956451 437.307587,191.908676 442.989471,191.860901 
z"/>
<path fill="#132A60" opacity="1.000000" stroke="none" 
	d="
M154.985107,406.002441 
	C154.237762,405.997772 153.490433,405.993073 152.369354,405.993378 
	C151.995605,405.998352 152.000000,406.000000 151.962280,405.638428 
	C150.574402,404.546539 149.224243,403.816223 147.874084,403.085938 
	C147.874084,403.085938 147.959793,403.031342 147.919037,402.720581 
	C146.906891,401.945312 145.935501,401.480804 144.964096,401.016296 
	C144.964096,401.016296 144.995117,400.994385 144.964996,400.661285 
	C142.611420,398.552399 140.287964,396.776581 137.964508,395.000793 
	C135.371399,392.547852 132.778290,390.094879 130.065567,387.327942 
	C132.730545,385.779694 134.550110,387.157318 136.948166,388.672516 
	C142.070709,391.909058 147.738266,394.283020 153.825104,397.288269 
	C158.049515,398.093658 161.646729,398.540680 165.200012,399.218140 
	C165.891205,399.349945 166.411407,400.378662 166.633972,401.002716 
	C162.500031,402.675323 158.742569,404.338867 154.985107,406.002441 
z"/>
<path fill="#203152" opacity="1.000000" stroke="none" 
	d="
M397.011963,306.968903 
	C397.531555,306.998535 398.051147,307.028198 398.957764,307.103943 
	C393.110748,308.222046 386.908966,309.900970 380.635681,310.233978 
	C369.191772,310.841522 357.699188,310.465149 346.238861,310.852539 
	C336.868378,311.169312 328.430511,314.565216 320.356262,319.922058 
	C319.959290,319.957428 319.835205,319.825714 319.935547,319.503845 
	C322.026764,317.454620 324.017670,315.727325 326.329895,313.860718 
	C328.100830,313.145325 329.550415,312.569214 331.398132,311.985901 
	C334.502777,311.318634 337.187164,310.213379 339.919800,310.077179 
	C350.606873,309.544525 361.309204,309.318146 372.466003,308.983643 
	C380.954742,308.315826 388.983337,307.642365 397.011963,306.968903 
z"/>
<path fill="#416FB6" opacity="1.000000" stroke="none" 
	d="
M8.746632,315.133179 
	C13.056277,293.796478 21.522486,274.472900 36.614361,258.066895 
	C36.914139,257.920685 37.061222,258.063446 37.075756,258.432678 
	C37.083431,259.208923 37.076572,259.615936 37.047493,260.263245 
	C37.025272,260.503510 36.994133,260.985077 36.691620,261.132141 
	C25.478865,273.019958 18.724638,286.983704 14.036084,302.464844 
	C15.337607,302.738037 16.274221,302.934662 17.131413,303.474731 
	C15.006838,307.220978 12.961689,310.623749 10.752300,314.217743 
	C9.974250,314.650391 9.360438,314.891785 8.746632,315.133179 
z"/>
<path fill="#203152" opacity="1.000000" stroke="none" 
	d="
M310.564697,329.577759 
	C305.789062,340.303711 301.028717,351.036560 296.229462,361.751923 
	C294.536316,365.532318 292.748077,369.270111 290.633484,373.138916 
	C290.263763,373.250519 289.974030,372.981171 290.022766,372.619812 
	C293.491028,363.332733 296.819580,354.370789 300.361816,345.494080 
	C302.739563,339.535553 304.922119,333.406219 310.129791,329.139893 
	C310.271606,329.288940 310.564697,329.577759 310.564697,329.577759 
z"/>
<path fill="#203152" opacity="1.000000" stroke="none" 
	d="
M289.480286,375.445129 
	C282.994232,387.727966 273.964264,397.779846 262.423523,406.007996 
	C262.092712,406.096008 261.963593,405.960968 261.998474,405.570862 
	C267.981781,398.999847 274.060822,392.937653 279.828339,386.592316 
	C283.133759,382.955811 285.933197,378.859375 289.089966,375.089233 
	C289.219513,375.208496 289.480286,375.445129 289.480286,375.445129 
z"/>
<path fill="#1C438E" opacity="1.000000" stroke="none" 
	d="
M144.968231,270.992828 
	C144.973648,270.257019 144.979065,269.521240 144.978516,268.417450 
	C150.407303,274.848236 155.842041,281.647003 161.396164,288.731995 
	C160.845001,288.744934 160.174469,288.471710 159.103668,287.795990 
	C155.135803,283.595673 151.568207,279.797852 147.967072,275.663422 
	C146.945099,273.882172 145.956665,272.437500 144.968231,270.992828 
z"/>
<path fill="#1C438E" opacity="1.000000" stroke="none" 
	d="
M222.956238,265.334473 
	C223.143707,265.041077 223.593140,265.046722 223.807434,265.427643 
	C220.393921,272.196777 216.766083,278.584991 213.138245,284.973206 
	C212.925598,284.964355 212.712952,284.955475 212.182495,284.920654 
	C215.499405,278.472473 219.134079,272.050171 222.956238,265.334473 
z"/>
<path fill="#1A418A" opacity="1.000000" stroke="none" 
	d="
M328.329498,210.874908 
	C329.271362,204.720093 333.951782,202.379410 339.906738,201.076248 
	C336.410675,204.310196 332.519348,207.519119 328.329498,210.874908 
z"/>
<path fill="#203152" opacity="1.000000" stroke="none" 
	d="
M320.021240,320.023376 
	C317.074432,323.105499 314.065643,326.121674 310.810791,329.357788 
	C310.564697,329.577759 310.271606,329.288940 310.171295,328.796783 
	C313.325745,325.478333 316.580475,322.652039 319.835205,319.825714 
	C319.835205,319.825714 319.959290,319.957428 320.021240,320.023376 
z"/>
<path fill="#203152" opacity="1.000000" stroke="none" 
	d="
M8.563102,315.469727 
	C9.360438,314.891785 9.974250,314.650391 11.149498,314.213196 
	C12.756845,313.958099 13.802755,313.898834 14.848665,313.839600 
	C14.848665,313.839600 14.981962,313.980743 15.048523,314.051392 
	C12.728696,316.186768 10.342307,318.251465 7.955918,320.316193 
	C7.670467,320.089020 7.385015,319.861847 7.099565,319.634674 
	C7.526235,318.358551 7.952905,317.082428 8.563102,315.469727 
z"/>
<path fill="#203152" opacity="1.000000" stroke="none" 
	d="
M112.953506,365.411194 
	C114.872742,367.556671 116.871323,370.038544 118.828651,372.893066 
	C116.869217,370.759705 114.951035,368.253662 112.953506,365.411194 
z"/>
<path fill="#203152" opacity="1.000000" stroke="none" 
	d="
M138.107117,395.302856 
	C140.287964,396.776581 142.611420,398.552399 144.961334,400.679810 
	C142.741776,399.222626 140.495743,397.413788 138.107117,395.302856 
z"/>
<path fill="#203152" opacity="1.000000" stroke="none" 
	d="
M440.404022,266.919769 
	C440.531494,264.632874 440.927002,262.081055 441.597473,259.286987 
	C441.472321,261.581421 441.072205,264.118134 440.404022,266.919769 
z"/>
<path fill="#203152" opacity="1.000000" stroke="none" 
	d="
M437.438263,273.040344 
	C437.933380,271.221954 438.761719,269.295044 439.907532,267.221375 
	C439.407135,269.027008 438.589325,270.979401 437.438263,273.040344 
z"/>
<path fill="#1D4FAB" opacity="1.000000" stroke="none" 
	d="
M127.119850,249.875656 
	C128.410477,250.624100 129.701096,251.372543 131.048248,252.507965 
	C131.104767,252.894958 130.950729,253.068069 130.591934,253.048859 
	C129.138687,252.032303 128.044235,251.034943 126.993896,249.998795 
	C127.038010,249.959991 127.119850,249.875656 127.119850,249.875656 
z"/>
<path fill="#1A418A" opacity="1.000000" stroke="none" 
	d="
M323.432831,217.014999 
	C323.905029,215.817795 324.659424,214.465561 325.790955,213.120117 
	C325.350403,214.371262 324.532684,215.615616 323.432831,217.014999 
z"/>
<path fill="#203152" opacity="1.000000" stroke="none" 
	d="
M148.023712,403.373230 
	C149.224243,403.816223 150.574402,404.546539 151.963547,405.639893 
	C150.726135,405.222168 149.449738,404.441345 148.023712,403.373230 
z"/>
<path fill="#163069" opacity="1.000000" stroke="none" 
	d="
M163.011124,291.990448 
	C162.748291,291.427277 162.485458,290.864136 162.157211,289.997559 
	C163.343719,290.544434 164.595657,291.394714 165.939316,292.606445 
	C166.031036,292.967926 165.947510,293.055084 165.634338,293.015137 
	C164.551147,292.646942 163.781128,292.318695 163.011124,291.990448 
z"/>
<path fill="#143B74" opacity="1.000000" stroke="none" 
	d="
M435.454346,277.027283 
	C435.554230,275.832245 435.977020,274.494904 436.781891,273.130493 
	C436.701721,274.363983 436.239502,275.624481 435.454346,277.027283 
z"/>
<path fill="#3964A4" opacity="1.000000" stroke="none" 
	d="
M345.487549,198.183411 
	C345.111237,197.994217 345.109131,197.805832 345.426086,197.302795 
	C346.516022,196.653931 347.286896,196.319748 348.057739,195.985565 
	C348.641510,196.042435 349.225250,196.099304 350.233032,196.285233 
	C349.058624,197.004272 347.460236,197.594254 345.487549,198.183411 
z"/>
<path fill="#1D4FAB" opacity="1.000000" stroke="none" 
	d="
M119.947105,245.125061 
	C120.147995,245.104141 120.348877,245.083237 120.844833,244.993469 
	C121.760445,245.410645 122.380981,245.896713 123.109955,246.674744 
	C122.279900,246.821854 121.341415,246.677017 120.173195,246.049500 
	C119.943466,245.566788 119.947105,245.125061 119.947105,245.125061 
z"/>
<path fill="#203152" opacity="1.000000" stroke="none" 
	d="
M145.126236,401.282715 
	C145.935501,401.480804 146.906891,401.945312 147.901825,402.768372 
	C147.046371,402.601044 146.167374,402.075104 145.126236,401.282715 
z"/>
<path fill="#163069" opacity="1.000000" stroke="none" 
	d="
M166.072723,292.924255 
	C167.032471,293.344391 167.950546,293.808167 168.954010,294.616150 
	C169.039368,294.960388 168.968842,295.051270 168.619339,295.036682 
	C167.495728,294.366425 166.721619,293.710754 165.947510,293.055084 
	C165.947510,293.055084 166.031036,292.967926 166.072723,292.924255 
z"/>
<path fill="#1A418A" opacity="1.000000" stroke="none" 
	d="
M321.522369,220.079025 
	C321.644806,219.205750 322.041138,218.177643 322.815063,217.144348 
	C322.727173,218.067520 322.261719,218.995850 321.522369,220.079025 
z"/>
<path fill="#1D4FAB" opacity="1.000000" stroke="none" 
	d="
M123.972488,249.005676 
	C123.966118,248.581009 123.959740,248.156342 123.944778,247.413269 
	C124.606583,247.491272 125.276978,247.887665 125.985092,248.631866 
	C126.022827,248.979645 125.960297,249.057846 125.629143,249.044312 
	C124.856155,249.022400 124.414330,249.014038 123.972488,249.005676 
z"/>
<path fill="#1C438E" opacity="1.000000" stroke="none" 
	d="
M144.887360,267.730469 
	C144.338928,267.509155 143.722290,266.994843 143.119354,266.140320 
	C143.695099,266.345917 144.257126,266.891724 144.887360,267.730469 
z"/>
<path fill="#203152" opacity="1.000000" stroke="none" 
	d="
M127.649506,384.619873 
	C128.004669,384.690399 128.469635,385.026306 128.972870,385.687073 
	C128.593857,385.636383 128.176575,385.260803 127.649506,384.619873 
z"/>
<path fill="#163069" opacity="1.000000" stroke="none" 
	d="
M171.095810,295.891541 
	C171.705887,295.970001 172.315948,296.048462 173.152985,296.336243 
	C173.379944,296.545532 173.182480,296.800964 172.781876,296.891052 
	C171.910294,296.671051 171.439301,296.360992 170.998627,296.009827 
	C171.028931,295.968750 171.095810,295.891541 171.095810,295.891541 
z"/>
<path fill="#203152" opacity="1.000000" stroke="none" 
	d="
M121.808273,377.409454 
	C122.140160,377.516998 122.546669,377.902191 122.998688,378.587738 
	C122.657104,378.487762 122.269997,378.087433 121.808273,377.409454 
z"/>
<path fill="#203152" opacity="1.000000" stroke="none" 
	d="
M290.404114,373.389954 
	C290.326416,374.041565 290.108398,374.553711 289.685364,375.255493 
	C289.480286,375.445129 289.219513,375.208496 289.125092,374.797119 
	C289.345123,373.917511 289.659576,373.449341 289.974030,372.981171 
	C289.974030,372.981171 290.263763,373.250519 290.404114,373.389954 
z"/>
<path fill="#163069" opacity="1.000000" stroke="none" 
	d="
M169.078613,294.918335 
	C169.706909,295.014679 170.295975,295.153076 170.990417,295.591522 
	C171.095810,295.891541 171.028931,295.968750 170.703644,295.980469 
	C169.908524,295.678558 169.438690,295.364899 168.968842,295.051270 
	C168.968842,295.051270 169.039368,294.960388 169.078613,294.918335 
z"/>
<path fill="#1D4FAB" opacity="1.000000" stroke="none" 
	d="
M134.291702,255.724167 
	C134.566650,255.903610 134.841614,256.083069 135.194153,256.503052 
	C135.271729,256.743622 135.103653,256.897308 134.807877,256.856262 
	C134.249695,256.613342 134.064606,256.355865 134.039948,255.962494 
	C134.123032,255.882156 134.291702,255.724167 134.291702,255.724167 
z"/>
<path fill="#1C438E" opacity="1.000000" stroke="none" 
	d="
M143.119293,265.647888 
	C142.886688,265.732178 142.570465,265.540680 142.143097,265.087891 
	C142.366531,265.008453 142.701096,265.190277 143.119293,265.647888 
z"/>
<path fill="#203152" opacity="1.000000" stroke="none" 
	d="
M126.730850,383.481506 
	C126.986778,383.413605 127.316490,383.611694 127.642776,384.117950 
	C127.361122,384.199921 127.082878,383.973724 126.730850,383.481506 
z"/>
<path fill="#203152" opacity="1.000000" stroke="none" 
	d="
M125.724350,382.267395 
	C125.850349,381.988739 126.082466,381.986084 126.662811,381.973297 
	C126.978775,382.187073 126.946518,382.410950 126.812393,382.959473 
	C126.417175,383.037170 126.123825,382.790283 125.724350,382.267395 
z"/>
<path fill="#203152" opacity="1.000000" stroke="none" 
	d="
M120.904388,376.323120 
	C121.136673,376.263397 121.432335,376.482910 121.795662,376.978912 
	C121.564804,377.037720 121.266273,376.820038 120.904388,376.323120 
z"/>
<path fill="#203152" opacity="1.000000" stroke="none" 
	d="
M118.785614,373.437988 
	C118.975342,373.366272 119.224922,373.529175 119.350449,373.831909 
	C119.226387,373.971710 118.845474,373.672607 118.785614,373.437988 
z"/>
<path fill="#1A418A" opacity="1.000000" stroke="none" 
	d="
M327.304352,212.018158 
	C327.224030,211.813171 327.397736,211.530228 327.799133,211.136810 
	C327.870697,211.330948 327.714539,211.635559 327.304352,212.018158 
z"/>
<path fill="#1A418A" opacity="1.000000" stroke="none" 
	d="
M326.350189,213.082382 
	C326.264465,212.870529 326.436768,212.567383 326.853333,212.155029 
	C326.934418,212.360901 326.771301,212.675995 326.350189,213.082382 
z"/>
<path fill="#1D4FAB" opacity="1.000000" stroke="none" 
	d="
M126.057785,248.943817 
	C126.384628,249.067505 126.676514,249.227051 127.044128,249.631119 
	C127.119850,249.875656 127.038010,249.959991 126.781281,249.888702 
	C126.259125,249.621689 126.071037,249.368500 125.960297,249.057846 
	C125.960297,249.057846 126.022827,248.979645 126.057785,248.943817 
z"/>
<path fill="#1D4FAB" opacity="1.000000" stroke="none" 
	d="
M131.184875,252.811249 
	C131.500839,252.956665 131.736694,253.185806 131.997650,253.696899 
	C132.022751,253.978882 131.958908,254.041275 131.741516,253.935974 
	C131.254974,253.635132 131.063843,253.380920 130.950729,253.068069 
	C130.950729,253.068069 131.104767,252.894958 131.184875,252.811249 
z"/>
<path fill="#1D4FAB" opacity="1.000000" stroke="none" 
	d="
M133.283524,254.722839 
	C133.566452,254.894836 133.849365,255.066818 134.212006,255.481476 
	C134.291702,255.724167 134.123032,255.882156 133.823044,255.851654 
	C133.252747,255.621368 133.063690,255.362289 133.037262,254.963135 
	C133.118668,254.882339 133.283524,254.722839 133.283524,254.722839 
z"/>
<path fill="#1D4FAB" opacity="1.000000" stroke="none" 
	d="
M132.054962,253.947983 
	C132.404495,254.035446 132.721848,254.153809 133.161362,254.497498 
	C133.283524,254.722839 133.118668,254.882339 132.819824,254.852417 
	C132.246567,254.624725 132.059219,254.364319 131.958908,254.041275 
	C131.958908,254.041275 132.022751,253.978882 132.054962,253.947983 
z"/>
<path fill="#14356B" opacity="1.000000" stroke="none" 
	d="
M396.970703,306.616425 
	C388.983337,307.642365 380.954742,308.315826 372.421204,308.625488 
	C367.650757,304.812317 363.878082,301.133362 366.225006,294.316132 
	C359.464874,293.861298 354.764893,290.862823 352.149170,284.918060 
	C351.903748,284.360260 350.637177,284.334320 350.009308,283.848663 
	C346.357025,281.023499 341.394073,279.382690 341.666748,273.173889 
	C341.725616,271.833679 339.267670,270.108765 337.657715,269.022400 
	C333.337891,266.107483 328.530212,263.820679 324.585999,260.491089 
	C323.020294,259.169373 322.468140,257.894196 320.000824,258.343994 
	C317.501190,258.799713 314.553986,258.650024 313.991455,254.983063 
	C320.351410,252.925415 326.591583,250.271652 333.102112,248.963287 
	C340.976166,247.380905 349.079132,246.937469 357.546509,246.009979 
	C356.809448,247.667236 355.608978,249.315689 354.204590,251.244125 
	C354.914734,252.092804 355.609009,253.236740 356.586670,254.032562 
	C359.626801,256.507172 360.428558,259.179932 359.279480,263.193878 
	C357.713501,268.664001 360.479919,273.785583 365.782104,275.597778 
	C368.396484,276.491394 368.569763,277.778015 369.209259,280.013123 
	C369.886200,282.379028 372.043945,284.427948 373.864929,286.316345 
	C374.824219,287.311127 377.299530,287.377869 377.632660,288.358734 
	C380.484131,296.754303 388.824921,298.480164 394.813751,303.042511 
	C395.777588,303.776794 396.236877,305.173462 396.970703,306.616425 
z"/>
<path fill="#183A7A" opacity="1.000000" stroke="none" 
	d="
M167.010468,400.993652 
	C166.411407,400.378662 165.891205,399.349945 165.200012,399.218140 
	C161.646729,398.540680 158.049515,398.093658 154.228027,397.291077 
	C153.388596,395.482391 153.075882,393.737244 152.132401,392.456848 
	C149.785522,389.271942 149.368042,386.480591 151.815155,382.960510 
	C152.989120,381.271820 153.591751,378.134857 152.833359,376.337128 
	C149.668625,368.835083 153.538010,359.924347 147.561707,352.802734 
	C146.239838,351.227509 147.744431,346.303192 149.190704,343.581665 
	C152.392380,337.556824 150.187302,331.363251 143.727631,329.898956 
	C142.791779,329.686829 141.998001,328.848053 141.457031,327.434204 
	C143.747147,327.641388 146.037277,327.848602 149.064087,328.028503 
	C150.867661,327.999207 151.934525,327.997162 153.001404,327.995117 
	C160.345428,330.286530 167.260605,328.010742 174.545303,326.344574 
	C171.982178,329.120056 172.532730,332.326874 172.578873,335.613617 
	C172.651627,340.796448 172.203369,345.986786 171.967575,351.173584 
	C171.922638,352.162018 172.231750,353.487457 171.715240,354.084412 
	C165.833557,360.882446 172.023193,367.625488 171.826096,374.387146 
	C171.711884,378.305756 173.454559,382.248047 173.829376,386.229797 
	C173.942368,387.430054 172.309052,388.827972 171.400085,390.080475 
	C170.691223,391.057281 169.865295,391.949127 169.091400,392.878723 
	C169.982025,393.587952 170.977020,394.200684 171.741058,395.026978 
	C173.230240,396.637512 174.590164,398.367554 175.789490,400.300995 
	C174.709702,400.677032 173.844055,400.800201 172.973145,400.551025 
	C172.271606,399.480103 171.575333,398.781555 170.879059,398.083038 
	C170.260727,399.026306 169.642395,399.969604 168.688766,400.934570 
	C167.905807,400.968750 167.458130,400.981201 167.010468,400.993652 
z"/>
<path fill="#183A7A" opacity="1.000000" stroke="none" 
	d="
M168.619339,295.036682 
	C169.438690,295.364899 169.908524,295.678558 170.673340,296.021545 
	C171.439301,296.360992 171.910294,296.671051 172.674988,297.012024 
	C172.968704,297.042908 172.973190,297.529663 172.978622,297.773193 
	C171.071976,300.133087 169.316147,302.424957 167.198441,304.310364 
	C165.499512,305.822968 162.877014,306.449066 161.498993,308.146240 
	C153.776016,317.658081 143.720901,320.966553 131.443756,319.995056 
	C129.025024,317.892792 127.044121,315.791687 125.028198,313.347717 
	C130.770889,313.444885 135.671249,311.533264 140.567612,308.411804 
	C146.593124,304.570526 153.070450,301.348816 159.614227,298.450165 
	C162.537140,297.155426 163.245224,295.515991 163.006653,292.399658 
	C163.781128,292.318695 164.551147,292.646942 165.634338,293.015137 
	C166.721619,293.710754 167.495728,294.366425 168.619339,295.036682 
z"/>
<path fill="#163069" opacity="1.000000" stroke="none" 
	d="
M152.965744,327.640656 
	C151.934525,327.997162 150.867661,327.999207 149.400757,328.000000 
	C146.236404,323.621216 146.511139,322.417328 151.185425,320.861053 
	C158.041916,318.578217 163.935394,315.404968 167.981644,308.871246 
	C170.028915,305.565399 173.887344,303.381165 176.967407,300.342468 
	C181.513397,300.465088 186.018860,300.935059 191.014099,301.456116 
	C188.741211,305.512665 186.586685,308.005585 181.782516,308.252167 
	C178.884109,308.400940 175.193146,310.308289 173.461075,312.624176 
	C168.992538,318.598816 163.120819,321.543091 156.181641,322.988495 
	C153.728043,323.499542 151.412872,323.878143 152.965744,327.640656 
z"/>
<path fill="#2056B9" opacity="1.000000" stroke="none" 
	d="
M393.018402,191.979309 
	C385.299988,191.667419 377.581573,191.355545 369.443176,191.037689 
	C366.430023,186.776459 365.916534,182.656662 369.700409,178.727600 
	C370.249054,178.157898 370.709106,177.358902 370.879852,176.592438 
	C372.071167,171.244598 373.332825,165.903549 374.231049,160.503616 
	C374.594696,158.317352 373.566650,155.853134 374.098267,153.749481 
	C376.185272,145.490829 378.132050,137.134125 381.117920,129.184570 
	C383.605621,122.561462 384.039307,121.602295 379.393707,116.216896 
	C383.119843,114.806755 386.559906,113.904724 390.233093,113.278839 
	C391.872467,114.027397 393.249908,114.631416 394.690552,114.947243 
	C398.790161,115.845978 399.555695,119.062561 399.654114,122.409248 
	C399.745483,125.514946 399.511444,128.689819 398.927338,131.739746 
	C398.284943,135.093857 397.987946,139.132233 395.942078,141.478958 
	C390.641754,147.558701 390.477478,154.629196 389.887085,161.911087 
	C389.602905,165.415833 387.514771,168.793259 387.340759,172.283051 
	C387.136108,176.387863 386.750427,181.715164 388.988342,184.353500 
	C391.099823,186.842697 393.030182,188.646149 393.018402,191.979309 
z"/>
<path fill="#1D4B9E" opacity="1.000000" stroke="none" 
	d="
M348.038269,195.559692 
	C347.286896,196.319748 346.516022,196.653931 345.435760,197.020370 
	C342.336243,197.052628 339.546143,197.052628 336.074371,197.052628 
	C335.859924,196.129181 335.362549,194.622314 335.182281,193.078415 
	C334.812836,189.915024 334.516205,186.735764 334.385803,183.554993 
	C334.321655,181.989273 334.087524,179.678604 334.965912,178.944962 
	C342.050690,173.027649 341.763062,164.265762 343.906799,156.500854 
	C345.048248,152.366394 345.648834,148.028763 346.000458,143.742386 
	C346.566925,136.837112 346.394653,136.822983 339.404358,134.946640 
	C343.219604,131.912003 347.113098,129.465454 351.337952,127.019798 
	C352.110840,127.005547 352.552338,126.990402 352.993866,126.975266 
	C354.463104,126.912125 355.991852,127.078918 357.384094,126.718391 
	C358.665833,126.386459 359.800781,125.487579 361.008850,124.833878 
	C361.499329,125.729187 361.857635,126.165939 361.778503,126.269920 
	C357.047363,132.488464 358.140808,138.754486 360.430908,145.713638 
	C361.572174,149.181595 359.958954,153.660400 359.221924,157.613022 
	C358.469177,161.649765 357.456238,165.665695 356.169617,169.562759 
	C355.584015,171.336533 353.985413,172.754837 352.995178,174.422760 
	C352.212402,175.741180 351.592346,177.168472 351.016205,178.594360 
	C350.188141,180.643631 349.113037,182.680481 348.778870,184.821823 
	C348.249176,188.216019 348.245209,191.692276 348.038269,195.559692 
z"/>
<path fill="#2564D3" opacity="1.000000" stroke="none" 
	d="
M353.149689,126.669952 
	C352.552338,126.990402 352.110840,127.005547 351.371094,126.671631 
	C353.650848,123.805481 356.273773,121.332039 358.781647,118.747002 
	C359.629547,117.873039 360.186188,116.716530 360.875916,115.689133 
	C359.844299,115.111954 358.872864,114.352760 357.770874,113.988472 
	C352.406403,112.215103 347.071686,112.453018 341.674561,114.112335 
	C340.658813,114.424606 339.229675,113.392120 337.991302,112.980179 
	C343.921906,112.004227 349.834656,110.348404 355.786774,110.192146 
	C368.654572,109.854317 381.542603,110.285271 394.487793,110.966080 
	C393.035492,112.021156 391.517761,112.511932 390.000000,113.002701 
	C386.559906,113.904724 383.119843,114.806755 379.334290,115.867889 
	C370.427734,119.472870 361.866608,122.918755 353.149689,126.669952 
z"/>
<path fill="#133067" opacity="1.000000" stroke="none" 
	d="
M313.614441,254.986282 
	C314.553986,258.650024 317.501190,258.799713 320.000824,258.343994 
	C322.468140,257.894196 323.020294,259.169373 324.585999,260.491089 
	C328.530212,263.820679 333.337891,266.107483 337.657715,269.022400 
	C339.267670,270.108765 341.725616,271.833679 341.666748,273.173889 
	C341.394073,279.382690 346.357025,281.023499 350.009308,283.848663 
	C350.637177,284.334320 351.903748,284.360260 352.149170,284.918060 
	C354.764893,290.862823 359.464874,293.861298 366.225006,294.316132 
	C363.878082,301.133362 367.650757,304.812317 371.961060,308.619812 
	C361.309204,309.318146 350.606873,309.544525 339.919800,310.077179 
	C337.187164,310.213379 334.502777,311.318634 331.191711,311.706604 
	C329.530365,310.209106 327.721954,309.074158 327.561493,307.740875 
	C327.128265,304.141449 325.221985,302.012329 322.640350,299.675110 
	C320.213623,297.478180 318.442444,294.288849 317.118652,291.218872 
	C315.843262,288.261108 315.591400,284.875244 314.738525,281.718323 
	C313.890015,278.577606 313.113098,275.376617 311.840271,272.400726 
	C309.747833,267.508606 307.280487,262.776764 304.971252,257.977356 
	C304.971252,257.977356 304.984131,257.489166 304.993286,257.245178 
	C306.511230,256.347595 308.020020,255.693939 309.898376,254.998108 
	C311.257751,254.967117 312.247559,254.978302 313.614441,254.986282 
z"/>
<path fill="#205BC3" opacity="1.000000" stroke="none" 
	d="
M255.981644,176.993591 
	C260.902130,164.343369 268.424988,153.476242 278.997742,144.292984 
	C282.837006,148.132980 286.260529,151.825607 289.226196,155.855179 
	C290.693054,157.848282 290.889374,160.797989 292.407013,162.727859 
	C295.942444,167.223663 300.547729,168.727707 305.995178,165.998627 
	C305.833160,166.574722 305.671143,167.150833 305.577332,168.085037 
	C305.467224,168.666702 305.250122,168.842361 304.690552,169.122620 
	C303.962402,169.778366 303.444977,170.229202 303.127319,170.792679 
	C297.444519,180.872147 291.785950,190.965286 285.753204,201.075043 
	C284.511536,202.157837 283.803436,203.456039 282.718414,204.216095 
	C281.696198,204.932144 279.549988,205.785477 279.146301,205.368912 
	C275.694275,201.806946 271.936157,198.305191 269.528168,194.069839 
	C268.363708,192.021667 270.026245,188.446350 270.149261,185.551453 
	C270.208679,184.153442 270.057739,181.768188 269.335602,181.475754 
	C264.991638,179.716644 260.454254,178.435059 255.981644,176.993591 
z"/>
<path fill="#1A3F85" opacity="1.000000" stroke="none" 
	d="
M304.994232,168.970123 
	C305.250122,168.842361 305.467224,168.666702 305.730103,168.253265 
	C308.927887,165.603012 312.249939,163.359695 315.095337,160.621094 
	C317.927734,157.894989 320.244263,154.638351 322.873749,151.691772 
	C323.462524,151.031982 324.412567,150.694580 326.511444,149.393463 
	C325.514221,152.325745 325.422363,154.858856 324.348297,155.384338 
	C317.726044,158.624252 320.728027,166.638046 316.335266,170.992920 
	C315.616333,171.705643 316.688904,174.423645 317.193726,176.138214 
	C319.401306,183.636246 315.883240,192.598282 309.797058,197.427307 
	C307.456909,199.284088 305.752747,202.810394 305.173401,205.845963 
	C303.769714,213.200500 302.865845,220.696243 302.471954,228.172562 
	C302.336517,230.742355 301.968384,231.395050 299.609528,232.139496 
	C292.339844,234.433838 288.972107,242.720795 292.429993,249.699020 
	C293.692566,252.247009 293.830017,254.193222 292.071625,256.510590 
	C289.756012,259.562256 290.839691,261.679443 294.554016,263.181519 
	C293.384369,264.809875 291.929871,265.892578 290.699890,267.188385 
	C285.745209,272.408478 280.859924,277.694397 275.710175,282.966492 
	C275.471375,282.977020 274.992554,282.993927 274.681122,282.840698 
	C271.913727,279.762878 268.879791,278.307007 264.999969,278.602173 
	C265.014343,277.144836 265.028870,276.085358 265.317566,274.775757 
	C266.728241,270.350403 267.864716,266.175201 269.315369,262.155762 
	C271.613281,264.167480 273.372589,265.619232 276.629150,264.316833 
	C280.523651,262.759277 282.372253,260.320282 282.699127,256.318481 
	C282.910278,253.732956 283.379608,251.169449 283.635529,248.586395 
	C284.081543,244.084961 285.384308,239.407959 284.609955,235.114380 
	C283.713135,230.141495 285.650208,228.259933 289.661011,227.255554 
	C294.059387,226.154114 296.599335,223.110001 297.256378,219.056122 
	C297.735626,216.099213 296.956238,212.869110 296.387268,209.826340 
	C295.307037,204.049286 299.055237,195.922638 303.776672,192.952576 
	C305.620850,191.792496 307.015839,189.512619 307.963806,187.444153 
	C308.976532,185.234421 309.113159,182.640305 309.819397,180.269760 
	C312.075623,172.697021 311.787262,171.950546 304.994232,168.970123 
z"/>
<path fill="#132A60" opacity="1.000000" stroke="none" 
	d="
M275.948975,282.955994 
	C280.859924,277.694397 285.745209,272.408478 290.699890,267.188385 
	C291.929871,265.892578 293.384369,264.809875 294.895874,263.333374 
	C295.056091,263.037537 295.529541,263.031158 296.076019,262.874054 
	C298.105682,261.492554 299.588898,260.268158 301.072113,259.043762 
	C302.147369,258.715027 303.222626,258.386292 304.634583,258.017456 
	C307.280487,262.776764 309.747833,267.508606 311.840271,272.400726 
	C313.113098,275.376617 313.890015,278.577606 314.738525,281.718323 
	C315.591400,284.875244 315.843262,288.261108 317.118652,291.218872 
	C318.442444,294.288849 320.213623,297.478180 322.640350,299.675110 
	C325.221985,302.012329 327.128265,304.141449 327.561493,307.740875 
	C327.721954,309.074158 329.530365,310.209106 330.793610,311.713806 
	C329.550415,312.569214 328.100830,313.145325 325.901276,313.861023 
	C322.693268,313.396484 319.911285,313.328125 317.843842,312.078033 
	C313.378571,309.378113 309.216949,306.154755 305.050079,302.988953 
	C301.305023,300.143677 297.353210,297.434845 294.149750,294.044830 
	C289.508728,289.133545 286.401642,282.206909 277.758362,283.716553 
	C277.216095,283.811310 276.554871,283.225281 275.948975,282.955994 
z"/>
<path fill="#2260D2" opacity="1.000000" stroke="none" 
	d="
M306.294250,165.832703 
	C300.547729,168.727707 295.942444,167.223663 292.407013,162.727859 
	C290.889374,160.797989 290.693054,157.848282 289.226196,155.855179 
	C286.260529,151.825607 282.837006,148.132980 279.298706,144.151306 
	C285.812347,135.292130 295.003906,129.636230 304.717102,124.087097 
	C307.785400,122.639198 310.537476,121.348671 313.608582,120.390060 
	C311.994629,124.314507 308.577209,127.866104 308.476776,131.509140 
	C308.326233,136.969467 310.504608,142.493988 311.692535,147.991226 
	C312.358307,148.249115 313.024078,148.507004 313.689880,148.764893 
	C316.715057,146.754425 319.848755,144.887375 322.740204,142.700089 
	C327.136292,139.374542 330.438873,134.097397 337.102234,135.061615 
	C335.754883,136.439285 334.407501,137.816940 332.994385,139.500595 
	C331.736176,140.283478 330.208374,140.441162 329.403290,141.286850 
	C321.730042,149.346954 314.179260,157.523605 306.294250,165.832703 
z"/>
<path fill="#1A3F85" opacity="1.000000" stroke="none" 
	d="
M300.651489,259.028442 
	C299.588898,260.268158 298.105682,261.492554 296.312561,262.864502 
	C295.505280,259.662964 297.143982,258.572388 300.651489,259.028442 
z"/>
<path fill="#2465DF" opacity="1.000000" stroke="none" 
	d="
M337.417145,135.044556 
	C330.438873,134.097397 327.136292,139.374542 322.740204,142.700089 
	C319.848755,144.887375 316.715057,146.754425 313.689880,148.764893 
	C313.024078,148.507004 312.358307,148.249115 311.692535,147.991226 
	C310.504608,142.493988 308.326233,136.969467 308.476776,131.509140 
	C308.577209,127.866104 311.994629,124.314507 313.965942,120.357147 
	C321.727905,117.662323 329.451508,115.332336 337.583191,112.991272 
	C339.229675,113.392120 340.658813,114.424606 341.674561,114.112335 
	C347.071686,112.453018 352.406403,112.215103 357.770874,113.988472 
	C358.872864,114.352760 359.844299,115.111954 360.875916,115.689133 
	C360.186188,116.716530 359.629547,117.873039 358.781647,118.747002 
	C356.273773,121.332039 353.650848,123.805481 351.039734,126.670746 
	C347.113098,129.465454 343.219604,131.912003 339.160339,134.662079 
	C338.573730,134.986252 338.152893,135.006866 337.417145,135.044556 
z"/>
<path fill="#142C63" opacity="1.000000" stroke="none" 
	d="
M103.362648,346.936829 
	C97.362167,338.903900 91.714211,330.806671 86.300552,322.127899 
	C87.054520,320.378845 87.303574,318.947388 88.140526,318.089386 
	C91.831993,314.305206 96.149643,311.037262 99.337296,306.888367 
	C101.591721,303.954071 102.694695,299.978943 103.578064,296.292664 
	C103.735344,295.636353 100.388832,293.348846 98.508827,293.132996 
	C90.426224,292.204956 89.866913,291.895081 87.837082,284.193329 
	C87.617142,283.358826 86.631165,282.726257 86.115189,281.726135 
	C86.508820,280.924561 86.787773,280.396820 87.431091,279.890991 
	C91.471550,281.980377 95.147652,284.047882 98.823761,286.115417 
	C100.659225,287.720917 102.494690,289.326447 104.770966,291.259277 
	C105.777802,292.073883 106.343826,292.561157 106.963867,293.384857 
	C108.680748,295.809967 110.343613,297.898712 112.006470,299.987427 
	C110.568787,302.220856 109.372002,304.669739 107.623322,306.625031 
	C105.988091,308.453491 105.731476,315.905884 107.694931,318.187714 
	C115.703194,327.494537 115.661179,327.946503 108.697052,337.980469 
	C106.768791,340.758728 105.361496,343.898560 103.362648,346.936829 
z"/>
<path fill="#1B4592" opacity="1.000000" stroke="none" 
	d="
M112.307930,300.135071 
	C110.343613,297.898712 108.680748,295.809967 107.333725,293.403259 
	C110.403030,294.528564 113.361351,295.688507 115.855026,297.491180 
	C118.601517,299.476624 120.053497,299.193817 122.433777,296.630035 
	C124.729683,294.157166 128.073532,291.798828 131.288345,291.215149 
	C138.097107,289.978912 146.993866,282.578156 148.000610,276.000000 
	C151.568207,279.797852 155.135803,283.595673 158.848511,287.691467 
	C157.139313,289.902710 155.578140,292.305878 153.369690,293.627289 
	C148.769989,296.379517 143.926208,298.787018 139.001099,300.916016 
	C133.027954,303.498108 126.867302,305.646454 120.400040,307.987885 
	C117.544662,305.423096 115.077026,302.852905 112.307930,300.135071 
z"/>
<path fill="#2465DF" opacity="1.000000" stroke="none" 
	d="
M443.189270,191.557556 
	C437.307587,191.908676 431.625732,191.956451 425.465973,191.619171 
	C423.326202,187.329330 421.892822,183.305862 419.942627,179.550797 
	C417.675812,175.186142 418.682190,171.767929 421.290924,167.843277 
	C423.416809,164.645020 425.063263,160.684967 425.481476,156.903366 
	C426.045197,151.805420 424.891724,146.540970 425.101715,141.373444 
	C425.286255,136.833176 426.858368,132.327423 426.853699,127.807442 
	C426.848877,123.187149 428.860382,120.647034 432.802216,119.198555 
	C437.134979,117.606445 439.181763,114.326241 440.027618,110.041809 
	C462.032410,110.033287 484.037231,110.024773 506.564850,110.414162 
	C506.975555,113.668015 506.721283,116.528778 506.817902,119.377647 
	C506.859406,120.601700 507.629303,121.801041 508.068268,123.011612 
	C506.815796,137.511993 500.651062,150.008041 492.060242,161.407501 
	C480.081757,177.302246 463.902039,186.456924 444.558472,190.358521 
	C444.126038,190.445786 443.776978,190.946426 443.189270,191.557556 
z"/>
<path fill="#2260D2" opacity="1.000000" stroke="none" 
	d="
M439.558350,110.023056 
	C439.181763,114.326241 437.134979,117.606445 432.802216,119.198555 
	C428.860382,120.647034 426.848877,123.187149 426.853699,127.807442 
	C426.858368,132.327423 425.286255,136.833176 425.101715,141.373444 
	C424.891724,146.540970 426.045197,151.805420 425.481476,156.903366 
	C425.063263,160.684967 423.416809,164.645020 421.290924,167.843277 
	C418.682190,171.767929 417.675812,175.186142 419.942627,179.550797 
	C421.892822,183.305862 423.326202,187.329330 424.998779,191.607910 
	C419.989532,191.985840 414.969604,191.990005 409.428925,191.611572 
	C407.252563,190.146286 405.596985,189.063629 402.935242,187.322983 
	C402.935242,185.112732 402.745941,181.758682 402.986725,178.435791 
	C403.243713,174.889343 404.959778,171.094177 404.119812,167.914581 
	C403.123138,164.141754 404.109833,162.047928 406.493744,159.674591 
	C407.587585,158.585602 408.639648,157.110016 408.950043,155.648209 
	C409.666748,152.273239 409.969452,148.805191 410.346771,145.364670 
	C410.834167,140.920242 414.580627,136.463531 410.262665,131.960419 
	C409.890228,131.572052 410.468689,130.066208 410.854645,129.189133 
	C413.779877,122.541824 415.068085,114.726929 423.199158,111.718452 
	C423.629883,111.559082 423.767029,110.606224 424.040833,110.022766 
	C429.056915,110.016617 434.073029,110.010460 439.558350,110.023056 
z"/>
<path fill="#205BC3" opacity="1.000000" stroke="none" 
	d="
M423.572266,110.006683 
	C423.767029,110.606224 423.629883,111.559082 423.199158,111.718452 
	C415.068085,114.726929 413.779877,122.541824 410.854645,129.189133 
	C410.468689,130.066208 409.890228,131.572052 410.262665,131.960419 
	C414.580627,136.463531 410.834167,140.920242 410.346771,145.364670 
	C409.969452,148.805191 409.666748,152.273239 408.950043,155.648209 
	C408.639648,157.110016 407.587585,158.585602 406.493744,159.674591 
	C404.109833,162.047928 403.123138,164.141754 404.119812,167.914581 
	C404.959778,171.094177 403.243713,174.889343 402.986725,178.435791 
	C402.745941,181.758682 402.935242,185.112732 402.935242,187.322983 
	C405.596985,189.063629 407.252563,190.146286 408.963257,191.604065 
	C403.994873,191.984634 398.971344,191.990112 393.483124,191.987457 
	C393.030182,188.646149 391.099823,186.842697 388.988342,184.353500 
	C386.750427,181.715164 387.136108,176.387863 387.340759,172.283051 
	C387.514771,168.793259 389.602905,165.415833 389.887085,161.911087 
	C390.477478,154.629196 390.641754,147.558701 395.942078,141.478958 
	C397.987946,139.132233 398.284943,135.093857 398.927338,131.739746 
	C399.511444,128.689819 399.745483,125.514946 399.654114,122.409248 
	C399.555695,119.062561 398.790161,115.845978 394.690552,114.947243 
	C393.249908,114.631416 391.872467,114.027397 390.233093,113.278839 
	C391.517761,112.511932 393.035492,112.021156 394.785889,111.260559 
	C404.380249,110.657356 413.741974,110.323975 423.572266,110.006683 
z"/>
<path fill="#2260D2" opacity="1.000000" stroke="none" 
	d="
M508.343811,122.754913 
	C507.629303,121.801041 506.859406,120.601700 506.817902,119.377647 
	C506.721283,116.528778 506.975555,113.668015 507.031830,110.427269 
	C511.213104,110.527092 509.966553,113.845482 509.919678,116.233482 
	C509.878601,118.329430 509.082153,120.410553 508.343811,122.754913 
z"/>
<path fill="#1D4795" opacity="1.000000" stroke="none" 
	d="
M199.963379,307.983337 
	C203.436951,302.756500 206.969345,297.567200 210.345932,292.278442 
	C211.279648,290.815979 211.749802,289.057587 212.848969,287.523193 
	C214.545517,288.744232 215.826050,289.876709 217.105911,291.009888 
	C219.740295,293.342407 223.427231,295.192963 224.767410,298.118439 
	C226.900620,302.774994 227.469727,308.148071 228.757095,313.451965 
	C224.202682,315.245972 223.576843,318.897858 223.967102,323.178192 
	C224.447845,328.450928 224.566895,333.757111 225.068619,339.027252 
	C225.435791,342.884186 225.681030,346.867462 226.881790,350.496277 
	C227.969681,353.783997 230.276855,356.668304 232.436264,360.405029 
	C233.757568,359.092896 234.869705,357.827759 236.147247,356.760651 
	C237.731506,355.437317 239.452713,354.277924 241.054810,353.402771 
	C235.833252,364.531708 229.143921,374.171967 219.577362,382.008148 
	C218.625671,382.002625 218.107315,381.913269 217.628815,382.013733 
	C211.031723,383.398346 206.745575,379.808197 204.991394,374.368927 
	C203.500702,369.746674 203.459320,364.415741 208.487778,360.686859 
	C209.385941,360.020844 209.546127,356.773468 208.740723,355.682343 
	C205.891281,351.822083 203.366501,348.305939 207.412201,343.752319 
	C207.837814,343.273285 207.873642,342.092224 207.615372,341.419067 
	C205.951736,337.082886 205.165100,332.884491 208.310577,330.343140 
	C206.845306,327.239441 205.643402,325.162018 204.859314,322.937317 
	C203.116287,317.991791 201.582474,312.972534 199.963379,307.983337 
z"/>
<path fill="#1A3F85" opacity="1.000000" stroke="none" 
	d="
M176.003601,400.048126 
	C174.590164,398.367554 173.230240,396.637512 171.741058,395.026978 
	C170.977020,394.200684 169.982025,393.587952 169.091400,392.878723 
	C169.865295,391.949127 170.691223,391.057281 171.400085,390.080475 
	C172.309052,388.827972 173.942368,387.430054 173.829376,386.229797 
	C173.454559,382.248047 171.711884,378.305756 171.826096,374.387146 
	C172.023193,367.625488 165.833557,360.882446 171.715240,354.084412 
	C172.231750,353.487457 171.922638,352.162018 171.967575,351.173584 
	C172.203369,345.986786 172.651627,340.796448 172.578873,335.613617 
	C172.532730,332.326874 171.982178,329.120056 174.940491,326.334717 
	C181.460297,321.753265 187.929123,317.521759 194.699554,313.565796 
	C194.167267,318.587036 193.218597,323.316162 192.533646,328.083252 
	C191.918182,332.366608 190.056183,336.569336 192.731598,341.029480 
	C193.905594,342.986664 193.821518,345.806610 193.964020,348.254883 
	C194.469406,356.938110 194.880157,365.627838 195.218307,374.319366 
	C195.409470,379.233063 195.359329,384.155762 195.484726,389.072693 
	C195.515228,390.268921 195.809204,391.458466 195.982025,392.651062 
	C197.135071,392.271545 198.301727,391.928741 199.438782,391.506195 
	C204.315933,389.693878 209.184357,387.858185 213.900085,386.332794 
	C203.006500,396.289795 190.284027,400.360687 176.003601,400.048126 
z"/>
<path fill="#1D4B9E" opacity="1.000000" stroke="none" 
	d="
M241.114777,353.047699 
	C239.452713,354.277924 237.731506,355.437317 236.147247,356.760651 
	C234.869705,357.827759 233.757568,359.092896 232.436264,360.405029 
	C230.276855,356.668304 227.969681,353.783997 226.881790,350.496277 
	C225.681030,346.867462 225.435791,342.884186 225.068619,339.027252 
	C224.566895,333.757111 224.447845,328.450928 223.967102,323.178192 
	C223.576843,318.897858 224.202682,315.245972 228.757095,313.451965 
	C227.469727,308.148071 226.900620,302.774994 224.767410,298.118439 
	C223.427231,295.192963 219.740295,293.342407 217.105911,291.009888 
	C215.826050,289.876709 214.545517,288.744232 213.117004,287.284393 
	C212.996277,286.516144 213.023849,286.074921 213.094833,285.303467 
	C216.766083,278.584991 220.393921,272.196777 224.031982,265.418396 
	C225.498306,262.489929 226.954376,259.951630 228.989075,257.345520 
	C231.164413,259.376862 232.339386,262.296661 234.455872,263.384277 
	C237.691925,265.047211 237.990601,267.344513 238.040421,270.283173 
	C238.065247,271.748474 238.485168,273.210480 238.761261,274.667389 
	C239.338852,277.715332 238.879913,279.575531 235.096390,280.242737 
	C233.250290,280.568268 230.597427,283.130920 230.472198,284.839447 
	C230.274185,287.541351 231.030853,291.434479 232.902695,292.962738 
	C239.263351,298.155914 236.685654,308.446045 244.604263,312.438782 
	C244.714905,312.494568 244.761368,312.731995 244.787613,312.892822 
	C245.821182,319.227478 249.041733,325.681000 243.291626,331.567291 
	C242.074844,332.812836 241.243973,334.723938 240.906570,336.458954 
	C240.567474,338.202667 241.065964,340.109253 241.197403,341.944458 
	C241.710876,342.016327 242.224350,342.088196 242.737808,342.160034 
	C243.639954,341.061493 245.020126,340.092987 245.360580,338.841614 
	C246.751297,333.730103 248.066528,328.572723 248.939850,323.353638 
	C249.676407,318.951996 251.620789,316.013794 256.073822,315.405212 
	C254.693100,320.064850 253.606201,324.450592 251.895386,328.577698 
	C248.483063,336.809479 244.728180,344.899261 241.114777,353.047699 
z"/>
<path fill="#1C438E" opacity="1.000000" stroke="none" 
	d="
M214.055969,386.031006 
	C209.184357,387.858185 204.315933,389.693878 199.438782,391.506195 
	C198.301727,391.928741 197.135071,392.271545 195.982025,392.651062 
	C195.809204,391.458466 195.515228,390.268921 195.484726,389.072693 
	C195.359329,384.155762 195.409470,379.233063 195.218307,374.319366 
	C194.880157,365.627838 194.469406,356.938110 193.964020,348.254883 
	C193.821518,345.806610 193.905594,342.986664 192.731598,341.029480 
	C190.056183,336.569336 191.918182,332.366608 192.533646,328.083252 
	C193.218597,323.316162 194.167267,318.587036 195.000885,313.421906 
	C196.460876,311.427734 197.921143,309.853058 199.672394,308.130859 
	C201.582474,312.972534 203.116287,317.991791 204.859314,322.937317 
	C205.643402,325.162018 206.845306,327.239441 208.310577,330.343140 
	C205.165100,332.884491 205.951736,337.082886 207.615372,341.419067 
	C207.873642,342.092224 207.837814,343.273285 207.412201,343.752319 
	C203.366501,348.305939 205.891281,351.822083 208.740723,355.682343 
	C209.546127,356.773468 209.385941,360.020844 208.487778,360.686859 
	C203.459320,364.415741 203.500702,369.746674 204.991394,374.368927 
	C206.745575,379.808197 211.031723,383.398346 217.628815,382.013733 
	C218.107315,381.913269 218.625671,382.002625 219.425720,382.306030 
	C217.835938,383.749207 215.945953,384.890106 214.055969,386.031006 
z"/>
<path fill="#2056B9" opacity="1.000000" stroke="none" 
	d="
M255.676727,177.152924 
	C260.454254,178.435059 264.991638,179.716644 269.335602,181.475754 
	C270.057739,181.768188 270.208679,184.153442 270.149261,185.551453 
	C270.026245,188.446350 268.363708,192.021667 269.528168,194.069839 
	C271.936157,198.305191 275.694275,201.806946 279.146301,205.368912 
	C279.549988,205.785477 281.696198,204.932144 282.718414,204.216095 
	C283.803436,203.456039 284.511536,202.157837 285.725525,201.453476 
	C285.704956,202.906494 285.323944,203.994751 284.984344,205.095810 
	C282.943359,211.712830 280.911896,218.332779 278.612793,225.179626 
	C277.246948,228.607697 276.145538,231.807861 274.994995,235.350891 
	C274.628937,236.795425 274.312042,237.897095 273.642700,239.035431 
	C267.502960,242.823181 267.145050,242.756882 262.923889,236.829697 
	C261.880219,235.364243 261.036072,233.750473 259.935181,232.333084 
	C254.485245,225.316147 253.486755,215.469360 245.653259,209.933044 
	C244.846848,209.363113 244.637329,207.948578 243.564621,205.693710 
	C246.464783,205.918411 248.466217,206.073486 250.190125,206.207062 
	C252.546921,204.764679 254.931137,203.305527 257.798004,201.550980 
	C257.103790,200.249893 256.021362,198.633881 255.346466,196.862595 
	C254.249710,193.984161 253.344940,191.025085 252.511658,188.057220 
	C252.145935,186.754730 252.155579,185.346832 251.994781,183.986801 
	C253.120468,181.761948 254.246155,179.537094 255.676727,177.152924 
z"/>
<path fill="#1E4EA6" opacity="1.000000" stroke="none" 
	d="
M256.085480,315.014343 
	C251.620789,316.013794 249.676407,318.951996 248.939850,323.353638 
	C248.066528,328.572723 246.751297,333.730103 245.360580,338.841614 
	C245.020126,340.092987 243.639954,341.061493 242.737808,342.160034 
	C242.224350,342.088196 241.710876,342.016327 241.197403,341.944458 
	C241.065964,340.109253 240.567474,338.202667 240.906570,336.458954 
	C241.243973,334.723938 242.074844,332.812836 243.291626,331.567291 
	C249.041733,325.681000 245.821182,319.227478 244.787613,312.892822 
	C244.761368,312.731995 244.714905,312.494568 244.604263,312.438782 
	C236.685654,308.446045 239.263351,298.155914 232.902695,292.962738 
	C231.030853,291.434479 230.274185,287.541351 230.472198,284.839447 
	C230.597427,283.130920 233.250290,280.568268 235.096390,280.242737 
	C238.879913,279.575531 239.338852,277.715332 238.761261,274.667389 
	C238.485168,273.210480 238.065247,271.748474 238.040421,270.283173 
	C237.990601,267.344513 237.691925,265.047211 234.455872,263.384277 
	C232.339386,262.296661 231.164413,259.376862 229.258942,257.117004 
	C229.439438,254.460068 229.928726,251.963837 230.969421,249.444031 
	C232.677017,253.310989 234.178680,256.749329 238.454422,258.476105 
	C239.711014,258.983582 239.964050,261.619415 241.043671,262.991272 
	C243.840485,266.545044 246.419556,270.483612 249.919235,273.190826 
	C252.016769,274.813385 253.274658,275.872681 253.038361,278.502441 
	C252.921692,279.800995 252.851425,281.318512 253.406403,282.407684 
	C254.086975,283.743347 255.443695,284.734436 256.508087,285.874512 
	C257.347473,284.824005 258.056061,283.622009 259.056396,282.757874 
	C260.627747,281.400482 262.395782,280.270782 264.063477,279.470245 
	C261.751312,290.627411 259.456238,301.358978 256.901550,312.288116 
	C256.456421,313.328552 256.270966,314.171448 256.085480,315.014343 
z"/>
<path fill="#2053B1" opacity="1.000000" stroke="none" 
	d="
M251.674408,184.160187 
	C252.155579,185.346832 252.145935,186.754730 252.511658,188.057220 
	C253.344940,191.025085 254.249710,193.984161 255.346466,196.862595 
	C256.021362,198.633881 257.103790,200.249893 257.798004,201.550980 
	C254.931137,203.305527 252.546921,204.764679 250.190125,206.207062 
	C248.466217,206.073486 246.464783,205.918411 243.564621,205.693710 
	C244.637329,207.948578 244.846848,209.363113 245.653259,209.933044 
	C253.486755,215.469360 254.485245,225.316147 259.935181,232.333084 
	C261.036072,233.750473 261.880219,235.364243 262.923889,236.829697 
	C267.145050,242.756882 267.502960,242.823181 273.640900,239.432327 
	C272.328125,247.195038 270.664673,254.597519 269.001190,262.000000 
	C267.864716,266.175201 266.728241,270.350403 264.959564,274.801605 
	C261.133148,277.224823 257.154938,277.365234 255.961761,273.906067 
	C254.599533,269.956848 251.194458,266.739044 250.604401,263.548981 
	C249.459702,257.360413 246.825668,250.256287 252.302505,244.179337 
	C253.271988,243.103653 253.468201,240.408752 252.834625,238.992569 
	C251.262192,235.477936 248.942291,232.304764 247.042801,228.926865 
	C245.813522,226.740814 244.908081,224.370605 243.649384,222.203827 
	C242.583237,220.368484 241.218292,218.706696 239.985565,216.968109 
	C242.196640,209.972900 244.299606,202.940933 246.660675,195.996719 
	C248.007675,192.035065 249.775635,188.216553 251.674408,184.160187 
z"/>
<path fill="#1D4FAB" opacity="1.000000" stroke="none" 
	d="
M239.713593,217.212845 
	C241.218292,218.706696 242.583237,220.368484 243.649384,222.203827 
	C244.908081,224.370605 245.813522,226.740814 247.042801,228.926865 
	C248.942291,232.304764 251.262192,235.477936 252.834625,238.992569 
	C253.468201,240.408752 253.271988,243.103653 252.302505,244.179337 
	C246.825668,250.256287 249.459702,257.360413 250.604401,263.548981 
	C251.194458,266.739044 254.599533,269.956848 255.961761,273.906067 
	C257.154938,277.365234 261.133148,277.224823 264.685394,275.051697 
	C265.028870,276.085358 265.014343,277.144836 264.770142,278.614502 
	C264.540466,279.024658 264.080536,279.044647 264.080536,279.044678 
	C262.395782,280.270782 260.627747,281.400482 259.056396,282.757874 
	C258.056061,283.622009 257.347473,284.824005 256.508087,285.874512 
	C255.443695,284.734436 254.086975,283.743347 253.406403,282.407684 
	C252.851425,281.318512 252.921692,279.800995 253.038361,278.502441 
	C253.274658,275.872681 252.016769,274.813385 249.919235,273.190826 
	C246.419556,270.483612 243.840485,266.545044 241.043671,262.991272 
	C239.964050,261.619415 239.711014,258.983582 238.454422,258.476105 
	C234.178680,256.749329 232.677017,253.310989 231.244720,249.193787 
	C231.128479,248.111343 231.288315,247.255569 232.050110,246.149384 
	C240.585739,241.186768 242.020370,234.091888 239.898102,225.789078 
	C239.714325,225.070084 238.635345,224.579910 237.972183,223.983459 
	C238.461990,221.808167 238.951813,219.632874 239.713593,217.212845 
z"/>
<path fill="#1E4EA6" opacity="1.000000" stroke="none" 
	d="
M237.691177,224.236237 
	C238.635345,224.579910 239.714325,225.070084 239.898102,225.789078 
	C242.020370,234.091888 240.585739,241.186768 232.308701,245.942200 
	C233.780304,238.819946 235.595245,231.654480 237.691177,224.236237 
z"/>
<path fill="#205BC3" opacity="1.000000" stroke="none" 
	d="
M131.741516,253.935974 
	C132.059219,254.364319 132.246567,254.624725 132.738419,254.933212 
	C133.063690,255.362289 133.252747,255.621368 133.739960,255.931976 
	C134.064606,256.355865 134.249695,256.613342 134.722366,256.931458 
	C135.622314,258.783295 136.311981,260.518921 136.712067,262.839905 
	C132.745819,264.558563 129.073944,265.707764 125.391487,266.821930 
	C116.814774,269.416901 109.974236,274.642914 103.581093,280.721710 
	C102.375725,281.867798 99.586876,282.579651 98.131653,281.993896 
	C94.244522,280.429260 90.685349,278.049805 86.995842,275.994171 
	C88.549698,275.047058 90.075684,274.050232 91.662018,273.161072 
	C100.231384,268.357910 108.775215,263.506622 117.413506,258.830109 
	C121.216644,256.771210 123.550407,253.999664 123.698792,249.262543 
	C124.414330,249.014038 124.856155,249.022400 125.629143,249.044312 
	C126.071037,249.368500 126.259125,249.621689 126.737175,249.927505 
	C128.044235,251.034943 129.138687,252.032303 130.591934,253.048859 
	C131.063843,253.380920 131.254974,253.635132 131.741516,253.935974 
z"/>
<path fill="#1D4B9E" opacity="1.000000" stroke="none" 
	d="
M147.967072,275.663422 
	C146.993866,282.578156 138.097107,289.978912 131.288345,291.215149 
	C128.073532,291.798828 124.729683,294.157166 122.433777,296.630035 
	C120.053497,299.193817 118.601517,299.476624 115.855026,297.491180 
	C113.361351,295.688507 110.403030,294.528564 107.279701,293.066833 
	C106.343826,292.561157 105.777802,292.073883 105.097672,291.327026 
	C105.436058,290.501556 105.942551,289.407227 106.333138,289.447144 
	C115.699409,290.404236 122.747826,285.297333 129.940598,280.562531 
	C134.728455,277.410828 139.499924,274.234222 144.623474,271.030823 
	C145.956665,272.437500 146.945099,273.882172 147.967072,275.663422 
z"/>
<path fill="#2056B9" opacity="1.000000" stroke="none" 
	d="
M86.656654,275.847198 
	C90.685349,278.049805 94.244522,280.429260 98.131653,281.993896 
	C99.586876,282.579651 102.375725,281.867798 103.581093,280.721710 
	C109.974236,274.642914 116.814774,269.416901 125.391487,266.821930 
	C129.073944,265.707764 132.745819,264.558563 136.724640,263.208069 
	C138.418350,264.219391 139.809891,265.447906 142.055939,267.430817 
	C140.418625,268.484650 139.512817,269.245514 138.473984,269.706696 
	C132.863632,272.197205 127.147186,274.460724 121.614914,277.110657 
	C118.101952,278.793365 114.695175,280.799103 111.514221,283.046936 
	C107.856842,285.631470 104.171768,287.364197 99.220535,286.080505 
	C95.147652,284.047882 91.471550,281.980377 87.143494,279.728699 
	C84.657486,278.391296 82.823425,277.238068 80.989365,276.084778 
	C82.765396,275.956604 84.541435,275.828430 86.656654,275.847198 
z"/>
<path fill="#10255A" opacity="1.000000" stroke="none" 
	d="
M80.663666,276.060822 
	C82.823425,277.238068 84.657486,278.391296 86.779137,279.706848 
	C86.787773,280.396820 86.508820,280.924561 85.762375,281.762939 
	C80.859291,284.696686 78.556061,289.216400 79.697815,293.623352 
	C80.844551,298.049561 80.053894,303.881500 85.466789,306.665436 
	C85.919304,306.898163 85.811150,308.185272 85.999138,308.974030 
	C87.020035,313.257355 84.550766,316.145142 82.005554,319.005188 
	C76.624039,314.008514 71.249596,309.004120 65.848221,304.029022 
	C65.392853,303.609558 64.791489,303.223785 64.199402,303.098053 
	C60.524422,302.317566 56.861626,301.371246 53.141411,300.931519 
	C39.152748,299.278107 26.907045,303.814850 15.741319,311.892548 
	C15.383995,312.151062 15.269603,312.745361 14.945315,313.511353 
	C13.802755,313.898834 12.756845,313.958099 11.313738,314.021912 
	C12.961689,310.623749 15.006838,307.220978 17.344685,303.407471 
	C17.637384,302.996674 18.028000,302.774719 18.312210,302.659973 
	C19.356752,301.360443 20.117086,300.175598 21.166836,298.822205 
	C23.720032,296.227692 25.883999,293.698761 28.264097,291.392914 
	C41.891163,278.190887 57.571472,271.006042 77.178192,275.248871 
	C77.927155,275.577637 78.494896,275.670502 79.062637,275.763336 
	C79.487747,275.854492 79.912865,275.945679 80.663666,276.060822 
z"/>
<path fill="#132A60" opacity="1.000000" stroke="none" 
	d="
M82.147591,319.301514 
	C84.550766,316.145142 87.020035,313.257355 85.999138,308.974030 
	C85.811150,308.185272 85.919304,306.898163 85.466789,306.665436 
	C80.053894,303.881500 80.844551,298.049561 79.697815,293.623352 
	C78.556061,289.216400 80.859291,284.696686 85.647705,282.036804 
	C86.631165,282.726257 87.617142,283.358826 87.837082,284.193329 
	C89.866913,291.895081 90.426224,292.204956 98.508827,293.132996 
	C100.388832,293.348846 103.735344,295.636353 103.578064,296.292664 
	C102.694695,299.978943 101.591721,303.954071 99.337296,306.888367 
	C96.149643,311.037262 91.831993,314.305206 88.140526,318.089386 
	C87.303574,318.947388 87.054520,320.378845 86.264923,321.774353 
	C84.759865,321.200867 83.524750,320.399353 82.147591,319.301514 
z"/>
<path fill="#2564D3" opacity="1.000000" stroke="none" 
	d="
M18.028000,302.774719 
	C18.028000,302.774719 17.637384,302.996674 17.424110,303.063965 
	C16.274221,302.934662 15.337607,302.738037 14.036084,302.464844 
	C18.724638,286.983704 25.478865,273.019958 36.694298,261.584259 
	C37.002613,274.376862 37.596287,274.795990 49.667007,273.113983 
	C54.802990,272.398315 60.037544,272.420563 65.203896,271.882690 
	C69.450401,271.440552 73.944122,271.393799 77.831184,269.888336 
	C86.058418,266.701904 93.960999,262.677246 101.998215,258.998169 
	C101.999695,259.000000 102.000610,259.001221 102.000610,259.001221 
	C101.087280,260.287750 100.447464,262.008545 99.213364,262.785797 
	C93.823677,266.180176 88.281715,269.336182 82.742653,272.486664 
	C81.777687,273.035492 80.560875,273.141541 78.931366,273.745972 
	C77.933891,274.364227 77.465424,274.688599 76.996964,275.012970 
	C57.571472,271.006042 41.891163,278.190887 28.264097,291.392914 
	C25.883999,293.698761 23.720032,296.227692 20.831266,298.868042 
	C19.480186,300.313263 18.754093,301.543976 18.028000,302.774719 
z"/>
<path fill="#2564D3" opacity="1.000000" stroke="none" 
	d="
M119.541656,245.085510 
	C119.947105,245.125061 119.943466,245.566788 119.926422,245.787262 
	C119.466331,246.187943 118.687157,246.298798 118.633430,246.559280 
	C118.202652,248.648132 118.603233,252.013611 117.451195,252.654404 
	C112.826538,255.226730 107.733971,256.957825 102.407494,259.000549 
	C102.000610,259.001221 101.999695,259.000000 102.036095,258.651245 
	C102.944084,257.403961 103.814667,256.504517 104.687447,255.607178 
	C108.139702,252.057800 111.592621,248.509064 115.045303,244.960083 
	C116.408943,244.988708 117.772575,245.017334 119.541656,245.085510 
z"/>
<path fill="#2056B9" opacity="1.000000" stroke="none" 
	d="
M77.178192,275.248871 
	C77.465424,274.688599 77.933891,274.364227 78.701790,274.014465 
	C79.012749,274.384644 79.024277,274.780304 79.049225,275.469635 
	C78.494896,275.670502 77.927155,275.577637 77.178192,275.248871 
z"/>
<path fill="#122457" opacity="1.000000" stroke="none" 
	d="
M256.073822,315.405212 
	C256.270966,314.171448 256.456421,313.328552 257.243286,312.219910 
	C258.524078,311.290344 259.402222,310.739288 259.852509,309.945526 
	C264.937103,300.983154 269.955994,291.983551 274.992554,282.993927 
	C274.992554,282.993927 275.471375,282.977020 275.710175,282.966492 
	C276.554871,283.225281 277.216095,283.811310 277.758362,283.716553 
	C286.401642,282.206909 289.508728,289.133545 294.149750,294.044830 
	C297.353210,297.434845 301.305023,300.143677 305.050079,302.988953 
	C309.216949,306.154755 313.378571,309.378113 317.843842,312.078033 
	C319.911285,313.328125 322.693268,313.396484 325.579926,314.000305 
	C324.017670,315.727325 322.026764,317.454620 319.935547,319.503845 
	C316.580475,322.652039 313.325745,325.478333 310.029480,328.647705 
	C304.922119,333.406219 302.739563,339.535553 300.361816,345.494080 
	C296.819580,354.370789 293.491028,363.332733 290.022766,372.619812 
	C289.659576,373.449341 289.345123,373.917511 288.995544,374.677856 
	C285.933197,378.859375 283.133759,382.955811 279.828339,386.592316 
	C274.060822,392.937653 267.981781,398.999847 261.934113,405.503113 
	C255.408859,408.799927 249.075928,411.999329 242.538757,414.705261 
	C225.022476,421.955780 206.818268,422.323303 188.362961,419.638000 
	C176.332886,417.887573 165.615753,412.839691 155.186768,406.277344 
	C158.742569,404.338867 162.500031,402.675323 166.633972,401.002686 
	C167.458130,400.981201 167.905807,400.968750 169.083496,400.957794 
	C170.868484,400.947327 171.923431,400.935364 172.978394,400.923370 
	C173.844055,400.800201 174.709702,400.677032 175.789490,400.300995 
	C190.284027,400.360687 203.006500,396.289795 213.900101,386.332794 
	C215.945953,384.890106 217.835938,383.749207 219.877579,382.310425 
	C229.143921,374.171967 235.833252,364.531708 241.054825,353.402771 
	C244.728180,344.899261 248.483063,336.809479 251.895386,328.577698 
	C253.606201,324.450592 254.693100,320.064850 256.073822,315.405212 
M311.357880,316.620819 
	C312.699493,317.303955 314.041077,317.987091 315.382690,318.670227 
	C315.735565,317.874725 316.088440,317.079193 316.441315,316.283691 
	C314.861847,316.186218 313.282349,316.088745 311.357880,316.620819 
z"/>
<path fill="#2465DF" opacity="1.000000" stroke="none" 
	d="
M115.035812,244.968597 
	C111.592621,248.509064 108.139702,252.057800 104.687447,255.607178 
	C103.814667,256.504517 102.944084,257.403961 102.034607,258.649414 
	C93.960999,262.677246 86.058418,266.701904 77.831184,269.888336 
	C73.944122,271.393799 69.450401,271.440552 65.203896,271.882690 
	C60.037544,272.420563 54.802990,272.398315 49.667007,273.113983 
	C37.596287,274.795990 37.002613,274.376862 36.996811,261.437195 
	C36.994133,260.985077 37.025272,260.503510 37.356010,260.213501 
	C38.130077,259.299347 38.573402,258.675171 39.016727,258.050995 
	C40.814266,256.461487 42.611809,254.871979 45.075119,253.138031 
	C47.824104,251.326126 49.907318,249.658661 51.990532,247.991196 
	C51.990528,247.991196 51.999695,248.000000 52.386780,247.993347 
	C57.411541,246.176514 62.078518,244.434952 66.654884,242.481155 
	C67.330559,242.192673 67.577362,240.899658 68.022591,240.071411 
	C68.462563,240.050369 68.902534,240.029327 69.871338,240.260498 
	C71.266594,240.007706 72.133026,239.502686 72.999451,238.997650 
	C74.735634,238.662094 76.471817,238.326523 78.829453,238.261826 
	C80.971535,238.354950 82.492157,238.177200 84.012787,237.999451 
	C87.362534,238.009583 90.712273,238.019714 94.561020,238.336609 
	C95.716522,238.742996 96.373024,238.842636 97.029526,238.942291 
	C97.463715,238.959122 97.897896,238.975952 98.709747,239.331970 
	C100.065071,239.767914 101.042732,239.864670 102.020393,239.961441 
	C103.398590,239.982147 104.776787,240.002869 106.618210,240.392212 
	C109.732224,242.161255 112.383003,243.561646 115.033783,244.962036 
	C115.033783,244.962036 115.026329,244.977097 115.035812,244.968597 
z"/>
<path fill="#2564D3" opacity="1.000000" stroke="none" 
	d="
M67.650696,240.087952 
	C67.577362,240.899658 67.330559,242.192673 66.654884,242.481155 
	C62.078518,244.434952 57.411541,246.176514 52.383873,247.988724 
	C57.088856,245.362000 62.183823,242.733246 67.650696,240.087952 
z"/>
<path fill="#2564D3" opacity="1.000000" stroke="none" 
	d="
M114.973083,244.618393 
	C112.383003,243.561646 109.732224,242.161255 107.031540,240.404373 
	C109.625221,241.456848 112.268799,242.865799 114.973083,244.618393 
z"/>
<path fill="#2564D3" opacity="1.000000" stroke="none" 
	d="
M51.646492,248.024231 
	C49.907318,249.658661 47.824104,251.326126 45.370209,252.997467 
	C47.100502,251.353333 49.201477,249.705292 51.646492,248.024231 
z"/>
<path fill="#2564D3" opacity="1.000000" stroke="none" 
	d="
M83.781975,237.729675 
	C82.492157,238.177200 80.971535,238.354950 79.220001,238.261993 
	C80.509789,237.814178 82.030479,237.637039 83.781975,237.729675 
z"/>
<path fill="#2564D3" opacity="1.000000" stroke="none" 
	d="
M101.809738,239.699844 
	C101.042732,239.864670 100.065071,239.767914 99.035233,239.348145 
	C99.855064,239.162827 100.727066,239.300537 101.809738,239.699844 
z"/>
<path fill="#2564D3" opacity="1.000000" stroke="none" 
	d="
M72.661484,238.997375 
	C72.133026,239.502686 71.266594,240.007706 70.201698,240.257629 
	C70.776665,239.667374 71.550087,239.332230 72.661484,238.997375 
z"/>
<path fill="#2564D3" opacity="1.000000" stroke="none" 
	d="
M96.852432,238.701691 
	C96.373024,238.842636 95.716522,238.742996 95.016777,238.355621 
	C95.540802,238.198944 96.108078,238.330017 96.852432,238.701691 
z"/>
<path fill="#2564D3" opacity="1.000000" stroke="none" 
	d="
M38.712139,258.047424 
	C38.573402,258.675171 38.130077,259.299347 37.378235,259.973236 
	C37.076572,259.615936 37.083431,259.208923 37.148930,258.504425 
	C37.607563,258.152557 38.007557,258.098206 38.712139,258.047424 
z"/>
<path fill="#1A3F85" opacity="1.000000" stroke="none" 
	d="
M172.973145,400.551025 
	C171.923431,400.935364 170.868484,400.947327 169.418793,400.936096 
	C169.642395,399.969604 170.260727,399.026306 170.879059,398.083038 
	C171.575333,398.781555 172.271606,399.480103 172.973145,400.551025 
z"/>
<path fill="#183A7A" opacity="1.000000" stroke="none" 
	d="
M269.315369,262.155762 
	C270.664673,254.597519 272.328125,247.195038 273.993347,239.395660 
	C274.312042,237.897095 274.628937,236.795425 275.336304,235.292801 
	C278.490753,232.121674 282.067932,229.609238 278.877258,224.951752 
	C280.911896,218.332779 282.943359,211.712830 284.984344,205.095810 
	C285.323944,203.994751 285.704956,202.906494 286.094482,201.433899 
	C291.785950,190.965286 297.444519,180.872147 303.127319,170.792679 
	C303.444977,170.229202 303.962402,169.778366 304.690552,169.122620 
	C311.787262,171.950546 312.075623,172.697021 309.819397,180.269760 
	C309.113159,182.640305 308.976532,185.234421 307.963806,187.444153 
	C307.015839,189.512619 305.620850,191.792496 303.776672,192.952576 
	C299.055237,195.922638 295.307037,204.049286 296.387268,209.826340 
	C296.956238,212.869110 297.735626,216.099213 297.256378,219.056122 
	C296.599335,223.110001 294.059387,226.154114 289.661011,227.255554 
	C285.650208,228.259933 283.713135,230.141495 284.609955,235.114380 
	C285.384308,239.407959 284.081543,244.084961 283.635529,248.586395 
	C283.379608,251.169449 282.910278,253.732956 282.699127,256.318481 
	C282.372253,260.320282 280.523651,262.759277 276.629150,264.316833 
	C273.372589,265.619232 271.613281,264.167480 269.315369,262.155762 
z"/>
<path fill="#183A7A" opacity="1.000000" stroke="none" 
	d="
M274.681122,282.840698 
	C269.955994,291.983551 264.937103,300.983154 259.852509,309.945526 
	C259.402222,310.739288 258.524078,311.290344 257.502930,312.022339 
	C259.456238,301.358978 261.751312,290.627411 264.063477,279.470215 
	C264.080536,279.044647 264.540466,279.024658 264.770294,279.012329 
	C268.879791,278.307007 271.913727,279.762878 274.681122,282.840698 
z"/>
<path fill="#1A3F85" opacity="1.000000" stroke="none" 
	d="
M278.612793,225.179626 
	C282.067932,229.609238 278.490753,232.121674 275.385437,234.949951 
	C276.145538,231.807861 277.246948,228.607697 278.612793,225.179626 
z"/>
<path fill="#416FB6" opacity="1.000000" stroke="none" 
	d="
M18.312208,302.659973 
	C18.754093,301.543976 19.480186,300.313263 20.541849,299.036652 
	C20.117086,300.175598 19.356752,301.360443 18.312208,302.659973 
z"/>
<path fill="#132A60" opacity="1.000000" stroke="none" 
	d="
M311.530396,316.306030 
	C313.282349,316.088745 314.861847,316.186218 316.441315,316.283691 
	C316.088440,317.079193 315.735565,317.874725 315.382690,318.670227 
	C314.041077,317.987091 312.699493,317.303955 311.530396,316.306030 
z"/>
</svg>